<svg width="47" height="41" viewBox="0 0 47 41" fill="none" xmlns="http://www.w3.org/2000/svg">
<path d="M10.8659 34.0552C10.8589 34.5143 10.853 34.9733 10.844 35.4324C10.8261 36.3605 10.8062 37.2886 10.7863 38.2166C10.7753 38.7145 10.7634 39.2124 10.7464 39.7093C10.7444 39.8045 10.7283 39.8987 10.6987 39.9891C10.6419 40.1525 10.4946 40.2072 10.3313 40.1465C10.1949 40.0947 10.0774 40.029 9.99876 39.8926C9.94301 39.795 9.85539 39.7143 9.77375 39.6347C8.6348 38.5283 7.49286 37.423 6.35291 36.3167C5.32945 35.3239 4.30798 34.3281 3.28451 33.3353C2.53583 32.6093 1.78416 31.8854 1.03648 31.1585C0.940901 31.0658 0.857268 30.9593 0.767665 30.8617C0.734949 30.8265 0.709979 30.7848 0.694373 30.7394C0.678768 30.6939 0.672877 30.6457 0.67707 30.5978C0.683044 30.4743 0.697974 30.3509 0.710917 30.2274C0.721868 30.1139 0.743775 30.0003 0.745766 29.8868C0.75174 29.4845 0.755719 29.0832 0.750741 28.6819C0.746759 28.3463 0.724852 28.0127 0.716887 27.6782C0.706931 27.2002 0.677067 26.7202 0.696979 26.2432C0.761692 24.7694 0.742775 23.2957 0.740783 21.8219C0.740783 21.4196 0.722862 21.0193 0.699964 20.619C0.698968 20.6011 0.70295 20.5762 0.714897 20.5662C0.724853 20.5582 0.752733 20.5622 0.76468 20.5722C1.01855 20.7634 1.30927 20.8908 1.58106 21.0521C1.74434 21.1497 1.90761 21.2513 2.05794 21.3688C2.7897 21.9404 3.55332 22.4672 4.30997 23.0039C4.62158 23.225 4.93122 23.455 5.21197 23.7129C5.84863 24.293 6.51067 24.8445 7.19618 25.3659L9.37851 27.0488C9.55274 27.1823 9.72298 27.3227 9.89621 27.4591C9.96292 27.5129 10.0296 27.5686 10.1013 27.6144C10.1422 27.6377 10.1878 27.6513 10.2347 27.6543C10.2974 27.6582 10.3512 27.6254 10.3691 27.5666C10.3821 27.5248 10.386 27.4641 10.3641 27.4332C10.3141 27.3637 10.2544 27.3017 10.1869 27.249C9.74289 26.9004 9.29787 26.5539 8.85184 26.2074C8.06533 25.5969 7.27781 24.9895 6.49429 24.3761C6.30533 24.229 6.12359 24.0728 5.9497 23.9081C5.36371 23.3573 4.73447 22.8545 4.06804 22.4044C3.47666 22.0001 2.9032 21.568 2.32875 21.1378C2.06957 20.9413 1.7945 20.7668 1.5064 20.616C1.41281 20.5672 1.32122 20.5164 1.22962 20.4656C0.991678 20.3389 0.799465 20.1407 0.680055 19.899C0.657157 19.8542 0.674079 19.8253 0.698969 19.7994C0.765708 19.7303 0.850049 19.6807 0.942891 19.656C1.06933 19.6162 1.20473 19.5963 1.31624 19.5146C1.33979 19.4985 1.36736 19.4892 1.39589 19.4878C1.73239 19.4728 2.05297 19.3703 2.37853 19.3025C2.86637 19.202 3.3542 19.1213 3.852 19.0855C4.39658 19.0456 4.93321 18.958 5.46883 18.8534C5.85313 18.7787 6.23843 18.709 6.62372 18.6344C7.08169 18.5447 7.54065 18.4491 8.00161 18.3655C8.12108 18.3446 8.2505 18.3476 8.37296 18.3595C8.53723 18.3755 8.6119 18.4571 8.62285 18.6204C8.63281 18.7628 8.6348 18.9072 8.62683 19.0506C8.60991 19.3274 8.72938 19.5266 8.95041 19.6809C9.10173 19.7865 9.26302 19.8632 9.44521 19.898C9.81059 19.9687 10.175 20.0484 10.5414 20.1131C10.6817 20.138 10.8271 20.134 10.9695 20.138C11.066 20.14 11.1606 20.1261 11.2522 20.1709C11.288 20.1846 11.3264 20.1904 11.3647 20.1878C11.6524 20.1888 11.9342 20.2456 12.2189 20.2784C12.2856 20.2864 12.3523 20.2914 12.419 20.2953C12.9825 20.3282 13.546 20.3621 14.1105 20.3571C14.457 20.3541 14.7975 20.4039 15.139 20.4387C15.5004 20.4756 15.8608 20.5164 16.2242 20.5184C16.6752 20.5194 17.1242 20.5284 17.5742 20.5413C17.8798 20.5503 18.1865 20.5572 18.4901 20.5921C18.9182 20.6419 19.3424 20.7096 19.7665 20.7813C19.866 20.7982 19.9606 20.859 20.0522 20.9097C21.0458 21.4654 22.0105 22.0698 22.9792 22.6673C23.7448 23.1393 24.5065 23.6173 25.2741 24.0863C25.3915 24.158 25.4573 24.2477 25.4702 24.3801C25.4782 24.4657 25.5001 24.5534 25.4871 24.636C25.4513 24.8909 25.4234 25.1459 25.3248 25.3898C25.2571 25.579 25.2224 25.7784 25.2223 25.9793C25.2143 26.1805 25.2173 26.3816 25.2104 26.5828C25.1904 27.0886 25.1705 27.5955 25.1446 28.1014C25.1098 28.8183 25.073 29.5343 25.0301 30.2503C25.0092 30.6038 24.9714 30.9553 24.9445 31.3088C24.9346 31.4423 24.9366 31.5767 24.9266 31.7101C24.8599 32.5894 24.8689 33.4697 24.8748 34.35C24.8768 34.7523 24.8798 35.1536 24.8748 35.5559C24.8719 35.8536 24.8848 36.1484 24.9515 36.4392C24.9892 36.6277 24.9875 36.8219 24.9465 37.0097C24.9326 37.0824 24.8948 37.1302 24.8221 37.1491C24.7852 37.1581 24.7484 37.172 24.7126 37.181L19.2985 38.4546C17.8111 38.8042 16.3217 39.1537 14.8343 39.5052C13.9044 39.7243 12.9746 39.9423 12.0467 40.1684C11.7768 40.2379 11.4919 40.2208 11.2323 40.1196C11.1576 40.0917 11.1218 40.0429 11.1168 39.9732C11.103 39.8209 11.0963 39.6681 11.0969 39.5152C11.1039 39.075 11.1228 38.6359 11.1307 38.1957C11.1437 37.5156 11.1497 36.8365 11.1616 36.1563L11.2213 33.1998L11.2771 30.5879C11.287 30.1198 11.302 29.6508 11.3149 29.1818C11.3159 29.144 11.308 29.0982 11.3259 29.0693C11.4394 28.8811 11.4722 28.655 11.6126 28.4788C11.7619 28.2936 11.9511 28.1721 12.1741 28.1063C13.0273 27.8544 13.8955 27.6632 14.7656 27.481C15.3351 27.3615 15.9036 27.2291 16.4751 27.1145C17.2337 26.9622 17.9933 26.8128 18.755 26.6784C19.3762 26.5688 20.0004 26.4772 20.6247 26.3856C21.1185 26.3129 21.5944 26.1725 22.0713 26.0321C22.6945 25.8469 23.3187 25.6677 23.941 25.4824C24.1152 25.4307 24.2845 25.3669 24.4567 25.3082C24.4746 25.3021 24.4919 25.2944 24.5085 25.2853C24.5425 25.267 24.5691 25.2374 24.5835 25.2015C24.5979 25.1656 24.5992 25.1258 24.5871 25.0891C24.5692 25.0313 24.4955 24.9726 24.4348 24.9796C24.3682 24.9873 24.3026 25.0013 24.2387 25.0214C24.0376 25.0821 23.8394 25.1498 23.6383 25.2096C22.9693 25.4087 22.2983 25.5979 21.6322 25.8041C21.1732 25.9465 20.7023 26.0231 20.2304 26.0978C19.6828 26.1835 19.1333 26.2592 18.5877 26.3557C17.9197 26.4732 17.2536 26.6027 16.5876 26.7361C16.035 26.8467 15.4854 26.9741 14.9339 27.0886C14.0359 27.2759 13.1418 27.483 12.2528 27.711C12.1054 27.7489 11.9581 27.7897 11.8107 27.8315C11.6455 27.8793 11.4822 27.9321 11.31 27.95C11.0979 27.9729 10.9784 28.0994 10.9724 28.3433C10.9545 29.0892 10.9446 29.835 10.9326 30.5809C10.9207 31.27 10.9147 31.9591 10.9008 32.6482C10.8908 33.1172 10.8709 33.5862 10.857 34.0542L10.8659 34.0552V34.0552ZM18.5479 22.3945C18.5538 22.3188 18.5051 22.265 18.4443 22.2571C18.33 22.2431 18.214 22.2579 18.1068 22.2999C18.076 22.3108 18.0202 22.3128 18.0023 22.2939C17.8759 22.1644 17.7195 22.1943 17.5712 22.2132C17.3253 22.2441 17.0804 22.2869 16.8365 22.3278C16.7801 22.3382 16.7251 22.3546 16.6722 22.3766C16.6244 22.3955 16.6025 22.4373 16.6015 22.4901C16.6015 22.5488 16.6413 22.6056 16.6991 22.6136C16.7454 22.6192 16.7922 22.6188 16.8384 22.6126C17.169 22.5687 17.4995 22.5259 17.8291 22.4741C17.9117 22.4612 17.9724 22.4512 18.0182 22.5389C18.0312 22.5648 18.0879 22.5877 18.1178 22.5807C18.2462 22.5508 18.3856 22.5498 18.4961 22.4672C18.524 22.4473 18.5389 22.4074 18.5479 22.3955V22.3945ZM14.0817 36.5039C14.0787 36.4531 14.0866 36.3834 14.0677 36.3216C14.0568 36.2838 14.011 36.247 13.9712 36.229C13.9234 36.2081 13.8736 36.237 13.8507 36.2808C13.8239 36.3304 13.806 36.3844 13.7979 36.4401C13.776 36.6104 13.7601 36.7817 13.7432 36.953C13.7233 37.1621 13.6994 37.3712 13.6834 37.5803C13.6755 37.7028 13.7452 37.8014 13.8228 37.7964C13.8905 37.7924 13.9512 37.7158 13.9642 37.6032C14.004 37.2428 14.0418 36.8813 14.0817 36.5039V36.5039ZM4.78288 19.9896C4.77491 19.908 4.72513 19.8532 4.66838 19.8522C4.62102 19.8497 4.57354 19.853 4.52701 19.8622C4.19249 19.9418 3.85897 20.0215 3.52545 20.1051C3.47936 20.117 3.4356 20.1365 3.39602 20.1629C3.3313 20.2067 3.33828 20.3123 3.40299 20.3621C3.46272 20.4059 3.52544 20.4099 3.59314 20.3919L4.6196 20.133C4.65715 20.1262 4.69239 20.1101 4.72214 20.0862C4.75201 20.0564 4.76993 20.0105 4.78187 19.9896H4.78288ZM4.48619 31.7659C4.48619 31.8605 4.48121 31.9372 4.48818 32.0128C4.49216 32.0636 4.53398 32.1055 4.58077 32.1074C4.62059 32.1084 4.68033 32.0855 4.70024 32.0537C4.73482 31.9972 4.75593 31.9334 4.76197 31.8675C4.79382 31.5159 4.81672 31.1644 4.88343 30.8179C4.89438 30.7571 4.86053 30.7044 4.80378 30.6805C4.755 30.6596 4.67734 30.6735 4.65145 30.7223C4.61362 30.797 4.56981 30.8766 4.55986 30.9583C4.528 31.2331 4.50909 31.509 4.48619 31.7659ZM15.8239 22.3815C15.8578 22.3795 15.8867 22.3785 15.9145 22.3746L16.7329 22.2521L16.7598 22.2441C16.8116 22.2302 16.8643 22.1674 16.8594 22.1186C16.8544 22.0679 16.8245 22.026 16.7747 22.0151C16.7011 21.9991 16.6234 21.9772 16.5517 21.9862C16.3068 22.0201 16.0639 22.0639 15.82 22.1077C15.7831 22.1137 15.7383 22.1276 15.7184 22.1535C15.6913 22.1907 15.6773 22.2359 15.6786 22.282C15.6796 22.3108 15.7184 22.3417 15.7473 22.3626C15.7682 22.3775 15.801 22.3765 15.8239 22.3825V22.3815ZM23.1674 29.6558H23.1614C23.1614 29.5224 23.1634 29.3889 23.1604 29.2565C23.1601 29.2093 23.1534 29.1624 23.1405 29.1171C23.1176 29.0434 22.9991 29.0235 22.9514 29.0842C22.8897 29.1573 22.8571 29.2505 22.8598 29.3461C22.8667 29.4885 22.8628 29.6319 22.8727 29.7733C22.8797 29.8868 22.8966 30.0003 22.9165 30.1129C22.9233 30.1498 22.9422 30.1835 22.9703 30.2085C22.9962 30.2304 23.042 30.2453 23.0728 30.2373C23.0897 30.2315 23.1051 30.2222 23.1182 30.21C23.1312 30.1979 23.1415 30.1831 23.1485 30.1666C23.1644 30.1238 23.1654 30.074 23.1664 30.0262C23.1684 29.9028 23.1664 29.7793 23.1664 29.6558H23.1674ZM22.797 28.8432C22.797 28.7845 22.799 28.661 22.796 28.5375C22.7943 28.4903 22.7866 28.4434 22.7732 28.3981C22.7582 28.3463 22.6935 28.3035 22.6417 28.3045C22.592 28.3055 22.5332 28.3573 22.5213 28.4101C22.5163 28.429 22.5113 28.4479 22.5113 28.4658C22.5193 28.7128 22.5243 28.9607 22.5412 29.2067C22.5452 29.2694 22.581 29.3332 22.6158 29.3879C22.6318 29.4128 22.6825 29.4298 22.7154 29.4248C22.7329 29.4207 22.7493 29.4127 22.7634 29.4015C22.7776 29.3903 22.789 29.3762 22.797 29.3601C22.8141 29.316 22.8216 29.2688 22.8189 29.2216C22.816 29.1171 22.807 29.0125 22.797 28.8432V28.8432ZM23.261 30.9513H23.256V30.6645C23.2557 30.6262 23.2504 30.588 23.2401 30.551C23.2339 30.5279 23.2209 30.5072 23.2028 30.4916C23.1847 30.476 23.1623 30.4662 23.1385 30.4634C23.0808 30.4544 23.0161 30.4873 22.9972 30.5371C22.9872 30.564 22.9743 30.5918 22.9743 30.6197C22.9782 30.8288 22.9812 31.039 22.9932 31.2491C22.9952 31.2929 23.023 31.3407 23.0529 31.3745C23.0748 31.3994 23.1206 31.4193 23.1515 31.4144C23.1823 31.4094 23.2172 31.3765 23.2351 31.3467C23.2521 31.3127 23.2607 31.2751 23.26 31.2371C23.264 31.1425 23.261 31.0469 23.261 30.9513V30.9513ZM9.88128 23.7408C9.83349 23.7537 9.77575 23.7627 9.72497 23.7856C9.57663 23.8523 9.43127 23.925 9.28691 23.9967C9.26103 24.0097 9.23912 24.0296 9.21822 24.0485C9.1764 24.0863 9.16048 24.16 9.18238 24.2048C9.20428 24.2526 9.26401 24.2775 9.32873 24.2686C9.33868 24.2676 9.34864 24.2686 9.3576 24.2646C9.56468 24.169 9.77176 24.0734 9.97884 23.9758C9.99378 23.9688 10.0047 23.9489 10.0167 23.935C10.0565 23.8852 10.0326 23.7886 9.97188 23.7657C9.94599 23.7547 9.91811 23.7498 9.88128 23.7408V23.7408ZM8.57009 35.8118H8.56113C8.56113 35.7072 8.56511 35.6027 8.56014 35.4991C8.55989 35.4747 8.55022 35.4513 8.53315 35.4339C8.51608 35.4165 8.49293 35.4063 8.46854 35.4055C8.42573 35.4045 8.37097 35.4175 8.34111 35.4463C8.30821 35.4804 8.28907 35.5255 8.28734 35.5728C8.28436 35.753 8.28934 35.9343 8.2973 36.1145C8.30029 36.1593 8.32517 36.2041 8.34708 36.246C8.37694 36.3037 8.47949 36.3097 8.51633 36.2539C8.54375 36.2159 8.56151 36.1719 8.5681 36.1255C8.57507 36.0219 8.57009 35.9164 8.57009 35.8118ZM12.9427 25.2175C12.9198 25.1847 12.9069 25.1419 12.879 25.1279C12.8392 25.109 12.7844 25.0931 12.7456 25.106C12.5495 25.1727 12.3543 25.2444 12.1632 25.3241C12.0835 25.357 12.0935 25.4944 12.1721 25.5362C12.204 25.5531 12.2478 25.573 12.2777 25.5641C12.4867 25.5043 12.6918 25.4317 12.878 25.3171C12.9059 25.2992 12.9178 25.2574 12.9427 25.2175V25.2175ZM18.1297 24.7784C18.078 24.7814 18.0481 24.7774 18.0222 24.7864C17.8629 24.8431 17.7026 24.9009 17.5443 24.9646C17.5125 24.9776 17.4866 25.0114 17.4627 25.0393C17.4179 25.0901 17.4448 25.1817 17.5105 25.2016C17.5453 25.2126 17.5871 25.2215 17.62 25.2126C17.7912 25.1608 17.9615 25.103 18.1317 25.0453C18.1486 25.0393 18.1646 25.0274 18.1815 25.0174C18.2283 24.9865 18.2641 24.9118 18.2363 24.871C18.2064 24.8302 18.1576 24.8013 18.1297 24.7784V24.7784ZM7.24197 34.8329C7.24994 34.9226 7.25193 35.0082 7.26786 35.0908C7.27682 35.1396 7.31764 35.1695 7.37041 35.1755C7.42915 35.1825 7.48888 35.1496 7.5068 35.0968C7.51644 35.0701 7.52312 35.0424 7.52671 35.0142C7.54364 34.8449 7.55957 34.6756 7.5735 34.5053C7.57848 34.4515 7.53368 34.3908 7.48191 34.3759C7.42915 34.3609 7.35647 34.3818 7.32959 34.4266C7.3057 34.4675 7.27881 34.5093 7.27084 34.5551C7.25491 34.6477 7.25093 34.7423 7.24197 34.8329V34.8329ZM5.59328 22.6076C5.7476 22.5677 5.95169 22.505 6.13488 22.3845C6.18068 22.3546 6.18864 22.273 6.16176 22.2302C6.12891 22.1764 6.07415 22.1425 6.01939 22.1625C5.83342 22.2286 5.64948 22.3003 5.46784 22.3775C5.41109 22.4014 5.39317 22.4592 5.40512 22.5209C5.41507 22.5727 5.46784 22.6086 5.59328 22.6076V22.6076ZM19.2976 33.5434C19.2976 33.4468 19.2995 33.4179 19.2976 33.39C19.2969 33.3612 19.2863 33.3335 19.2677 33.3116C19.249 33.2896 19.2233 33.2748 19.195 33.2695C19.1619 33.2648 19.1282 33.2713 19.0992 33.2881C19.0703 33.3049 19.0479 33.331 19.0357 33.3621C19.0327 33.3711 19.0268 33.3801 19.0258 33.389C19.0009 33.5394 18.976 33.6898 18.9551 33.8411C18.9488 33.8789 18.9526 33.9177 18.966 33.9536C18.982 33.9866 19.0082 34.0135 19.0407 34.0303C19.0875 34.0522 19.1353 34.0343 19.1701 33.9975C19.1905 33.977 19.2053 33.9516 19.2129 33.9238C19.2478 33.7764 19.2796 33.627 19.2976 33.5434ZM7.29474 30.2941C7.30967 30.3748 7.31863 30.4495 7.33954 30.5211C7.35447 30.5689 7.39927 30.5938 7.45105 30.5909C7.50282 30.5889 7.53866 30.557 7.56056 30.5112C7.56886 30.4942 7.57457 30.4761 7.57749 30.4574L7.64319 30.0093C7.64563 29.9905 7.64563 29.9714 7.64319 29.9526C7.6415 29.9289 7.63285 29.9062 7.61833 29.8874C7.6038 29.8687 7.58405 29.8546 7.56156 29.847C7.53955 29.8378 7.51531 29.8354 7.49192 29.84C7.46852 29.8446 7.44703 29.856 7.43014 29.8729C7.40194 29.8979 7.38067 29.9298 7.36841 29.9655C7.33854 30.075 7.31863 30.1856 7.29474 30.2941V30.2941ZM2.75785 25.0064C2.75585 24.9766 2.75586 24.9477 2.75188 24.9198C2.74391 24.8481 2.68915 24.7914 2.62443 24.7864C2.59082 24.7845 2.55776 24.7954 2.53177 24.8168C2.50577 24.8382 2.48875 24.8686 2.48406 24.9019C2.46225 25.0336 2.44333 25.1657 2.42731 25.2982C2.42409 25.3361 2.42577 25.3743 2.43229 25.4117C2.43711 25.4452 2.4539 25.4757 2.47953 25.4977C2.50517 25.5196 2.53791 25.5316 2.57167 25.5312C2.60041 25.5305 2.62804 25.52 2.65009 25.5016C2.67213 25.4832 2.6873 25.4578 2.69313 25.4297C2.71702 25.2893 2.73594 25.1468 2.75785 25.0054V25.0064ZM5.23686 20.0593C5.39317 20.0195 5.54947 19.9797 5.70479 19.9359C5.72968 19.9299 5.75058 19.903 5.7705 19.8821C5.82426 19.8253 5.79339 19.7178 5.71673 19.6979C5.68033 19.6868 5.64202 19.6834 5.60423 19.6879C5.49173 19.7078 5.38023 19.7317 5.26972 19.7596C5.22348 19.7714 5.17897 19.7891 5.1373 19.8124C5.06761 19.8502 5.06463 19.9598 5.13034 20.0066C5.1602 20.0285 5.19704 20.0404 5.23586 20.0593H5.23686ZM2.74689 25.827C2.75088 25.8977 2.75287 25.9843 2.76282 26.069C2.76979 26.1287 2.82853 26.1715 2.88428 26.1665C2.93506 26.1616 2.97588 26.1367 2.99081 26.0869C3.04557 25.9007 3.03761 25.7085 3.0406 25.5183C3.0406 25.4685 3.00077 25.4316 2.95099 25.4187C2.90121 25.4068 2.85143 25.4157 2.82157 25.4565C2.79223 25.4939 2.77179 25.5375 2.76183 25.584C2.74988 25.6587 2.75187 25.7364 2.74689 25.827ZM6.77903 21.7064C6.77206 21.6158 6.71232 21.562 6.63965 21.565C6.45943 21.5779 6.28669 21.6422 6.14185 21.7502C6.09108 21.7841 6.07814 21.8418 6.09705 21.9026C6.11298 21.9523 6.17371 21.9922 6.23643 21.9723C6.39814 21.9206 6.55757 21.8622 6.71431 21.797C6.74816 21.7821 6.76509 21.7273 6.77903 21.7074V21.7064ZM7.74972 33.9407C7.75968 33.8361 7.76964 33.7595 7.76964 33.6838C7.77163 33.635 7.75171 33.5912 7.69895 33.5723C7.64519 33.5523 7.5735 33.5683 7.54364 33.6111C7.52173 33.642 7.49883 33.6758 7.49186 33.7117C7.462 33.862 7.461 34.0144 7.49286 34.1657C7.50055 34.1936 7.51663 34.2183 7.5389 34.2367C7.56117 34.255 7.58854 34.2661 7.61731 34.2683C7.68003 34.2693 7.74375 34.2126 7.74873 34.1409C7.75371 34.0652 7.74972 33.9885 7.74972 33.9407V33.9407ZM12.0805 22.5668C12.208 22.5369 12.3573 22.507 12.5017 22.4622C12.5355 22.4522 12.5644 22.3925 12.5763 22.3527C12.5903 22.3019 12.5385 22.2371 12.4847 22.2232C12.4579 22.2162 12.427 22.2063 12.4011 22.2122C12.2807 22.2384 12.1612 22.2683 12.0427 22.3019C12.0069 22.3118 11.977 22.3397 11.9481 22.3636C11.8973 22.4084 11.9123 22.507 11.975 22.5329C12.0009 22.5428 12.0288 22.5498 12.0805 22.5668V22.5668ZM13.0094 30.3917C12.9596 30.4325 12.8929 30.4584 12.881 30.4992C12.8598 30.5775 12.8556 30.6593 12.8684 30.7393C12.8813 30.8193 12.911 30.8956 12.9557 30.9633C12.9855 31.0151 13.0582 31.0419 13.103 31.023C13.1617 30.9971 13.2006 30.9454 13.1926 30.8896C13.1751 30.7581 13.1485 30.628 13.113 30.5002C13.102 30.4624 13.0532 30.4355 13.0094 30.3917ZM2.64037 27.5776C2.64435 27.6284 2.64037 27.6981 2.66028 27.7588C2.67223 27.7977 2.71603 27.8325 2.75387 27.8544C2.79568 27.8763 2.86836 27.8325 2.89126 27.7787C2.949 27.6423 2.93506 27.4999 2.91216 27.3595C2.9042 27.3087 2.83451 27.2599 2.78572 27.2619C2.73495 27.2619 2.67023 27.3117 2.66127 27.3635C2.65132 27.4292 2.64834 27.4949 2.64037 27.5776V27.5776ZM8.81003 38.1559C8.81799 38.2605 8.82595 38.3391 8.88768 38.3929C8.91356 38.4158 8.95837 38.4327 8.99023 38.4267C9.02109 38.4208 9.0659 38.3849 9.07087 38.357C9.09576 38.2266 9.11169 38.0942 9.12463 37.9617C9.12961 37.9069 9.07784 37.8522 9.02308 37.8372C8.9743 37.8243 8.89664 37.8542 8.87872 37.906C8.84886 37.9956 8.82894 38.0892 8.81003 38.1559V38.1559ZM10.7395 24.0306C10.7405 23.9489 10.6718 23.8742 10.612 23.8792C10.4707 23.8913 10.336 23.9446 10.2248 24.0326C10.2028 24.0507 10.1877 24.0757 10.1817 24.1035C10.1757 24.1314 10.1793 24.1604 10.1919 24.1859C10.2188 24.2377 10.2775 24.2755 10.3323 24.2566C10.4478 24.2188 10.5623 24.1769 10.6718 24.1232C10.7076 24.1062 10.7245 24.0525 10.7395 24.0306V24.0306ZM17.5901 29.2953C17.612 29.3521 17.628 29.4178 17.6618 29.4726C17.6857 29.5124 17.7375 29.5373 17.7862 29.5164C17.8181 29.5024 17.8609 29.4716 17.8659 29.4427C17.8858 29.3123 17.8988 29.1798 17.9067 29.0474C17.9107 28.9936 17.852 28.9398 17.7982 28.9299C17.7484 28.9209 17.6757 28.9548 17.6588 29.0075C17.6329 29.0992 17.615 29.1918 17.5901 29.2953ZM22.1579 35.7182C22.1579 35.7331 22.1529 35.7829 22.1658 35.8267C22.1758 35.8586 22.2037 35.8934 22.2325 35.9104C22.2773 35.9363 22.3321 35.9243 22.362 35.8835C22.4113 35.8135 22.4441 35.7332 22.4579 35.6487C22.4717 35.5642 22.4661 35.4776 22.4416 35.3956C22.4327 35.3617 22.3759 35.3288 22.3351 35.3189C22.3072 35.3109 22.2624 35.3368 22.2375 35.3607C22.2119 35.3882 22.1946 35.4224 22.1877 35.4593C22.1728 35.534 22.1688 35.6107 22.1579 35.7182V35.7182ZM1.93151 29.9555C1.94146 29.8799 1.90463 29.8131 1.84589 29.7922C1.78715 29.7713 1.71447 29.8032 1.68062 29.8679C1.61377 29.9932 1.58998 30.137 1.61292 30.2772C1.62287 30.3379 1.65971 30.3788 1.72044 30.3927C1.76923 30.4046 1.83294 30.3668 1.84987 30.307C1.88173 30.1895 1.90562 30.0701 1.93151 29.9555ZM6.78002 19.3822C6.68345 19.4011 6.55004 19.4131 6.44052 19.4987C6.3997 19.5306 6.37581 19.5784 6.39771 19.6242C6.41663 19.662 6.45745 19.7118 6.49329 19.7148C6.64761 19.7287 6.79197 19.6819 6.91841 19.5913C6.95823 19.5624 6.96819 19.5117 6.95126 19.4619C6.93434 19.4101 6.89252 19.3922 6.84274 19.3852L6.77903 19.3822H6.78002ZM13.4375 31.4811C13.4335 31.4124 13.4335 31.3656 13.4276 31.3188C13.4225 31.2907 13.4083 31.2651 13.3873 31.2459C13.3662 31.2266 13.3395 31.2148 13.3111 31.2122C13.2533 31.2073 13.1916 31.2401 13.1737 31.2919C13.1327 31.4184 13.1299 31.5542 13.1657 31.6822C13.174 31.7095 13.1903 31.7337 13.2125 31.7517C13.2347 31.7696 13.2617 31.7805 13.2902 31.7828C13.34 31.7858 13.4017 31.741 13.4126 31.6842C13.4266 31.6105 13.4315 31.5349 13.4375 31.4811ZM7.28379 21.3808C7.39828 21.3469 7.53866 21.3479 7.6422 21.2513C7.66609 21.2274 7.687 21.1766 7.67804 21.1497C7.66411 21.1099 7.62727 21.0571 7.59143 21.0502C7.43313 21.0203 7.29176 21.08 7.16631 21.1706C7.13843 21.1906 7.12848 21.2573 7.13545 21.2981C7.13943 21.326 7.18522 21.3489 7.21509 21.3688C7.23003 21.3788 7.25193 21.3758 7.28379 21.3808V21.3808ZM5.03675 30.1169C5.05069 30.1776 5.05666 30.2344 5.07856 30.2861C5.08707 30.3085 5.10332 30.327 5.12433 30.3383C5.14535 30.3496 5.16974 30.353 5.19305 30.3479C5.22591 30.3409 5.2727 30.314 5.27768 30.2881C5.30755 30.1507 5.33343 30.0123 5.34438 29.8719C5.35135 29.7863 5.22591 29.7335 5.15323 29.7872C5.12336 29.8082 5.09349 29.839 5.08354 29.8719C5.06164 29.9525 5.05168 30.0372 5.03675 30.1169V30.1169ZM4.21639 28.3931L4.20643 28.3921V28.3065C4.20512 28.2877 4.20245 28.2691 4.19846 28.2507C4.18751 28.192 4.14171 28.1442 4.08895 28.1362C4.03021 28.1273 3.95654 28.178 3.94061 28.2448C3.91045 28.3645 3.91113 28.4899 3.9426 28.6092C3.95554 28.657 3.99337 28.6869 4.04514 28.6939C4.0999 28.7018 4.16859 28.667 4.18154 28.6152C4.19846 28.5425 4.20543 28.4668 4.21639 28.3931V28.3931ZM19.7535 22.3825C19.6679 22.4184 19.5594 22.4552 19.4608 22.508C19.4091 22.5349 19.3941 22.5976 19.4101 22.6594C19.423 22.7111 19.4638 22.753 19.5086 22.749C19.6514 22.7399 19.7882 22.6879 19.9009 22.5996C19.9626 22.5498 19.9367 22.4393 19.8611 22.4124C19.8352 22.4024 19.8073 22.3975 19.7535 22.3825ZM7.03589 27.1942C7.0558 27.2998 7.07272 27.4123 7.09961 27.5228C7.11354 27.5796 7.17925 27.6124 7.23401 27.6055C7.26236 27.6003 7.28837 27.5864 7.30838 27.5657C7.32839 27.545 7.34139 27.5185 7.34552 27.49C7.35853 27.3564 7.33728 27.2217 7.28379 27.0986C7.25691 27.0279 7.13445 27.0189 7.09164 27.0817C7.07073 27.1125 7.05779 27.1494 7.03589 27.1942ZM9.02706 21.8916C8.87275 21.9085 8.75228 21.9553 8.65969 22.0609C8.64352 22.0781 8.6331 22.0999 8.62989 22.1232C8.62668 22.1466 8.63084 22.1704 8.64178 22.1913C8.66467 22.2381 8.70549 22.265 8.75527 22.261C8.88791 22.2506 9.01137 22.1892 9.09974 22.0898C9.12563 22.0619 9.13459 21.9972 9.11965 21.9613C9.10671 21.9275 9.05295 21.9095 9.02806 21.8916H9.02706ZM23.7419 31.4343C23.7448 31.4124 23.7538 31.3765 23.7558 31.3387C23.7566 31.3105 23.7483 31.2828 23.7322 31.2597C23.7161 31.2365 23.6929 31.2192 23.6662 31.2102C23.6005 31.1893 23.5268 31.2162 23.5019 31.2789C23.4759 31.339 23.4582 31.4023 23.4492 31.4671C23.4451 31.5049 23.4502 31.5431 23.4641 31.5785C23.478 31.6138 23.5002 31.6453 23.5288 31.6703C23.5571 31.6936 23.5927 31.7063 23.6294 31.7061C23.6532 31.7048 23.6758 31.6952 23.6934 31.6791C23.711 31.6629 23.7225 31.6412 23.7259 31.6175C23.7359 31.5627 23.7359 31.506 23.7409 31.4343H23.7419ZM3.01072 24.3901C3.00774 24.3373 3.00674 24.3084 3.00376 24.2805C2.99679 24.2208 2.95198 24.17 2.89922 24.162C2.84944 24.155 2.78572 24.1919 2.76382 24.2447C2.71503 24.3479 2.69772 24.4632 2.71404 24.5763C2.724 24.6261 2.75486 24.6619 2.80464 24.6758C2.8574 24.6898 2.92909 24.6619 2.94801 24.6101C2.97688 24.5314 2.99479 24.4488 3.01072 24.391V24.3901ZM19.3344 32.8214C19.3463 32.8872 19.3503 32.9648 19.3772 33.0335C19.3911 33.0674 19.4469 33.0933 19.4877 33.1042C19.5375 33.1172 19.5793 33.0843 19.6002 33.0375C19.6175 33.0043 19.6267 32.9674 19.6271 32.93C19.62 32.845 19.608 32.7606 19.5912 32.677C19.5813 32.6193 19.5226 32.5844 19.4628 32.5904C19.412 32.5964 19.3722 32.6203 19.3593 32.6721C19.3473 32.7169 19.3433 32.7647 19.3344 32.8214V32.8214ZM22.5223 23.227C22.4069 23.2261 22.2951 23.2664 22.2067 23.3405C22.1688 23.3753 22.1569 23.4261 22.1808 23.4699C22.1967 23.4998 22.2345 23.5327 22.2654 23.5357C22.3309 23.5452 22.3977 23.5416 22.4618 23.525C22.5259 23.5084 22.5861 23.4792 22.6387 23.4391C22.6985 23.3913 22.6766 23.2758 22.6049 23.2499C22.578 23.2399 22.5501 23.2349 22.5223 23.227V23.227ZM1.65872 28.6182L1.66171 28.652C1.66668 28.7068 1.71447 28.7686 1.76027 28.7785C1.7887 28.7819 1.81746 28.7758 1.84211 28.7613C1.86676 28.7467 1.88594 28.7244 1.89666 28.6978C1.92653 28.6082 1.95142 28.5166 1.96835 28.424C1.97731 28.3772 1.95341 28.3314 1.90861 28.3045C1.86481 28.2776 1.78914 28.2926 1.7523 28.3324C1.67464 28.415 1.65872 28.5166 1.65872 28.6182V28.6182ZM6.33201 28.8462C6.33201 28.8303 6.334 28.8024 6.33201 28.7735C6.33107 28.7498 6.32321 28.7269 6.30941 28.7076C6.29561 28.6883 6.27648 28.6735 6.25435 28.665C6.20457 28.6421 6.15877 28.66 6.12293 28.6909C6.09356 28.7184 6.07059 28.752 6.05564 28.7894C6.04069 28.8267 6.03411 28.8669 6.03639 28.9071C6.03867 28.9473 6.04974 28.9864 6.06883 29.0219C6.08791 29.0573 6.11454 29.0881 6.14683 29.1121C6.19959 29.1499 6.29517 29.1191 6.30811 29.0553C6.32106 28.9906 6.32305 28.9249 6.33201 28.8462V28.8462ZM8.40881 31.3248C8.39089 31.3317 8.35903 31.3347 8.33912 31.3516C8.2868 31.4005 8.25115 31.4646 8.23722 31.5348C8.22328 31.605 8.23176 31.6778 8.26146 31.743C8.28535 31.7868 8.32716 31.8236 8.37495 31.8087C8.41577 31.7968 8.46655 31.7619 8.48049 31.7251C8.51235 31.6374 8.53027 31.5428 8.5452 31.4492C8.55516 31.3875 8.48248 31.3208 8.40881 31.3248ZM4.63155 25.4267C4.61462 25.3301 4.60267 25.2464 4.58574 25.1628C4.57866 25.1349 4.56248 25.1101 4.53976 25.0925C4.51704 25.0748 4.48908 25.0652 4.4603 25.0652C4.4268 25.0662 4.39464 25.0786 4.36912 25.1003C4.3436 25.122 4.32625 25.1518 4.31992 25.1847C4.30764 25.2408 4.31068 25.2991 4.32872 25.3536C4.34676 25.4081 4.37915 25.4567 4.42247 25.4944C4.45233 25.5213 4.51407 25.5362 4.5509 25.5243C4.58575 25.5113 4.60665 25.4585 4.63054 25.4267H4.63155ZM13.7452 29.8649C13.7402 29.8151 13.7452 29.7624 13.7252 29.7225C13.7073 29.6857 13.6635 29.6439 13.6257 29.6389C13.5888 29.6349 13.5301 29.6648 13.5092 29.6976C13.4435 29.8012 13.4515 29.9147 13.5052 30.0233C13.5271 30.0671 13.5669 30.0959 13.6207 30.087C13.6705 30.079 13.7103 30.0531 13.7242 30.0033C13.7372 29.9575 13.7392 29.9097 13.7452 29.8649V29.8649ZM22.5481 34.9026C22.5611 34.9554 22.5641 35.0172 22.593 35.062C22.6129 35.0938 22.6686 35.1157 22.7104 35.1187C22.7383 35.1207 22.7871 35.0859 22.7941 35.059C22.8199 34.9694 22.8339 34.8758 22.8448 34.7821C22.8518 34.7284 22.804 34.6716 22.7512 34.6567C22.6865 34.6388 22.6079 34.6726 22.587 34.7343C22.57 34.7871 22.5611 34.8439 22.5481 34.9026V34.9026ZM14.5964 36.2519C14.5964 36.1912 14.5984 36.1723 14.5964 36.1534C14.5884 36.1036 14.5665 36.0627 14.5147 36.0468C14.465 36.0319 14.4152 36.0408 14.3843 36.0787C14.3421 36.1247 14.3138 36.1818 14.3027 36.2434C14.2916 36.3049 14.2981 36.3683 14.3216 36.4262C14.3495 36.4989 14.4739 36.5158 14.5108 36.4491C14.5526 36.3754 14.5785 36.2938 14.5964 36.2519ZM14.2619 31.6125C14.2519 31.5608 14.2479 31.514 14.234 31.4691C14.2111 31.3974 14.0986 31.3716 14.0458 31.4223C13.996 31.4735 13.9676 31.5417 13.9663 31.6131C13.965 31.6846 13.9909 31.7538 14.0389 31.8067C14.0916 31.8615 14.2061 31.8436 14.23 31.7729C14.2469 31.7201 14.2519 31.6633 14.2619 31.6125V31.6125ZM13.1697 24.6758C13.0753 24.6663 12.9806 24.691 12.9029 24.7455C12.8571 24.7734 12.8342 24.8491 12.8531 24.8969C12.875 24.9487 12.9377 24.9935 12.9885 24.9865C13.0751 24.9756 13.1578 24.9527 13.2185 24.885C13.2523 24.8481 13.2762 24.8003 13.2513 24.7555C13.2314 24.7177 13.1886 24.6928 13.1697 24.6758ZM13.9224 38.0732C13.9114 38.0344 13.9044 37.9976 13.8905 37.9627C13.8666 37.903 13.7681 37.8801 13.7213 37.9209C13.6287 38.0015 13.6048 38.1629 13.6775 38.2565C13.6974 38.2834 13.7432 38.3122 13.772 38.3073C13.8129 38.3003 13.8646 38.2724 13.8845 38.2376C13.9104 38.1908 13.9104 38.129 13.9224 38.0732ZM18.6713 37.4499C18.6693 37.431 18.6683 37.412 18.6653 37.3941C18.662 37.3759 18.6574 37.3579 18.6514 37.3403C18.6425 37.3134 18.6255 37.29 18.6026 37.2732C18.5798 37.2564 18.5523 37.2472 18.524 37.2467C18.491 37.2478 18.4596 37.261 18.4358 37.2838C18.4119 37.3066 18.3972 37.3373 18.3946 37.3702C18.3922 37.4162 18.399 37.4622 18.4145 37.5056C18.4384 37.5724 18.5031 37.6052 18.5708 37.5963C18.6345 37.5883 18.6733 37.5305 18.6703 37.4499H18.6713ZM19.4837 24.5424C19.567 24.5433 19.6475 24.5131 19.7097 24.4578C19.7695 24.407 19.7495 24.3004 19.6749 24.2686C19.5843 24.2287 19.4947 24.2496 19.418 24.3343C19.3862 24.3701 19.3603 24.4179 19.3921 24.4637C19.417 24.4986 19.4598 24.5225 19.4837 24.5424V24.5424ZM14.906 35.1615C14.8791 35.1247 14.8622 35.0799 14.8343 35.0699C14.7945 35.056 14.7348 35.052 14.7009 35.0729C14.6243 35.1217 14.5944 35.2024 14.6073 35.295C14.6163 35.3517 14.6671 35.4015 14.7208 35.4055C14.7726 35.4105 14.8194 35.3916 14.8403 35.3478C14.8702 35.29 14.8841 35.2253 14.906 35.1615V35.1615ZM23.4243 33.88C23.3964 33.8491 23.3665 33.7953 23.3217 33.7754C23.2899 33.7615 23.2271 33.7834 23.1973 33.8103C23.1276 33.873 23.1176 33.9845 23.1594 34.0702C23.1883 34.1299 23.2789 34.1428 23.3287 34.098C23.3894 34.0443 23.4123 33.9756 23.4243 33.88V33.88ZM18.4891 28.2975C18.4941 28.2139 18.4413 28.1462 18.3627 28.1342C18.292 28.1233 18.2163 28.187 18.2074 28.2667C18.1954 28.3663 18.2472 28.4459 18.3328 28.4599C18.4165 28.4728 18.4842 28.4041 18.4891 28.2975ZM17.9684 36.6662C18.0033 36.6562 18.0242 36.6552 18.0381 36.6443C18.0693 36.6227 18.095 36.5942 18.1133 36.561C18.1316 36.5279 18.142 36.4909 18.1437 36.4531C18.1457 36.4023 18.1267 36.3535 18.078 36.3396C18.0371 36.3276 17.9814 36.3246 17.9455 36.3436C17.853 36.3923 17.8271 36.5268 17.8898 36.6144C17.9087 36.6413 17.9485 36.6532 17.9694 36.6662H17.9684ZM13.4365 22.2909C13.5281 22.2949 13.6107 22.2312 13.6177 22.1485C13.6237 22.0788 13.5739 22.028 13.4953 22.023C13.3897 22.0161 13.3171 22.0708 13.3151 22.1585C13.3131 22.2232 13.3718 22.2879 13.4365 22.2909V22.2909ZM19.8133 31.7888C19.9108 31.7808 19.9457 31.7261 19.9696 31.6633C19.977 31.6437 19.9794 31.6225 19.9765 31.6017C19.9735 31.5808 19.9654 31.5611 19.9527 31.5443C19.9401 31.5275 19.9234 31.5142 19.9043 31.5056C19.8851 31.497 19.8641 31.4933 19.8431 31.495C19.8147 31.4962 19.7873 31.5057 19.7643 31.5223C19.7413 31.539 19.7237 31.562 19.7137 31.5886C19.6928 31.6434 19.6938 31.7012 19.7356 31.745C19.7595 31.7689 19.7973 31.7798 19.8133 31.7888V31.7888Z" fill="black"/>
<path d="M28.0777 9.01597C28.0777 9.72298 28.0897 10.432 28.0747 11.14C28.0618 11.7424 28.007 12.3439 27.9921 12.9464C27.9791 13.4433 27.9971 13.9412 28.003 14.4381C28.004 14.5526 28.016 14.6671 28.016 14.7826C28.018 15.3183 28.018 15.8541 28.018 16.3898C28.018 16.4287 28.019 16.4675 28.012 16.5043C28.0093 16.5236 27.9991 16.5411 27.9837 16.553C27.9682 16.5649 27.9487 16.5703 27.9294 16.5681C27.8735 16.5635 27.8187 16.5501 27.7671 16.5282C27.7153 16.5053 27.6745 16.4605 27.6247 16.4316C27.4903 16.354 27.323 16.3998 27.2653 16.5472C27.2195 16.6617 27.1757 16.7732 27.113 16.8808C27.0493 16.9923 27.1219 17.1426 27.2554 17.1755C27.3649 17.2014 27.4823 17.2004 27.5948 17.1954C27.6327 17.1954 27.6745 17.1486 27.7024 17.1128C27.7372 17.068 27.7611 17.0192 27.8218 16.9963C27.9742 16.9395 28.0319 16.9654 28.0568 17.1227C28.1185 17.5031 28.1096 17.8855 28.0966 18.2679C28.0956 18.3197 28.0538 18.3515 27.9981 18.3436C27.9517 18.3372 27.9065 18.3244 27.8637 18.3057C27.795 18.2739 27.7312 18.231 27.6625 18.1982C27.6297 18.1813 27.556 18.2181 27.5411 18.253C27.5003 18.3495 27.5391 18.485 27.6327 18.5218C27.7382 18.5656 27.8487 18.5995 27.9602 18.6234C28.1026 18.6543 28.1046 18.6493 28.1056 18.7867C28.1056 18.8445 28.1175 18.9072 28.0986 18.958C28.0389 19.1183 28.0767 19.2796 28.0797 19.4399C28.0857 19.7944 28.0966 20.1479 28.0946 20.5024C28.0936 20.7205 27.9712 20.8281 27.7482 20.8191C27.5271 20.8111 27.3091 20.8221 27.0891 20.8311C26.88 20.841 26.6699 20.8092 26.4599 20.7942C26.3364 20.7843 26.213 20.7574 26.0895 20.7624C25.295 20.7892 24.5016 20.7444 23.7081 20.7136C23.0487 20.6858 22.394 20.589 21.7547 20.4248C21.6621 20.4009 21.5686 20.378 21.4799 20.3451C21.3007 20.2764 21.3157 20.2814 21.3774 20.0912C21.4122 19.9846 21.5048 19.9279 21.5964 19.8731C21.6094 19.8651 21.6153 19.8432 21.6243 19.8263C21.6044 19.8164 21.5815 19.7944 21.5616 19.7964C21.3903 19.8144 21.2191 19.8333 21.0489 19.8562C21.02 19.8586 20.9925 19.8692 20.9694 19.8866C20.9463 19.9041 20.9287 19.9277 20.9184 19.9548C20.8824 20.0443 20.8199 20.1208 20.7392 20.1738C20.6954 20.2057 20.7104 20.2316 20.7422 20.2605C20.7462 20.2635 20.7352 20.2903 20.7243 20.2993C20.6716 20.3406 20.607 20.3637 20.5401 20.365C20.3211 20.369 20.102 20.3969 19.881 20.381C19.2896 20.3372 18.6973 20.3053 18.1049 20.2684C18.0004 20.2625 17.8958 20.2535 17.7903 20.2515C17.187 20.2425 16.5856 20.1918 15.9853 20.147C15.3745 20.1021 14.7632 20.0656 14.1514 20.0374C13.7681 20.0195 13.3938 19.9438 13.0164 19.8791C12.9597 19.8691 12.9039 19.8512 12.8472 19.8492C12.3793 19.8393 11.9103 19.8253 11.4424 19.8691C11.2333 19.889 11.0223 19.899 10.8122 19.909C10.5902 19.9189 10.3762 19.8572 10.1621 19.8114C9.85347 19.7466 9.54782 19.672 9.24118 19.5973C9.01418 19.5425 8.88276 19.3902 8.85787 19.1532C8.85018 19.0771 8.84719 19.0006 8.84892 18.9241C8.85078 18.6273 8.81872 18.3313 8.75334 18.0418C8.73244 17.9423 8.7404 17.8327 8.74438 17.7292C8.74818 17.6621 8.7609 17.5958 8.78221 17.532C8.85489 17.307 8.84493 17.0879 8.78619 16.8569C8.69858 16.5103 8.72148 16.1528 8.74836 15.7993C8.75838 15.6668 8.74831 15.5335 8.71849 15.404C8.6339 15.0204 8.61038 14.6259 8.6488 14.2349C8.65478 14.1692 8.66772 14.1025 8.66872 14.0358C8.67569 13.5867 8.68166 13.1366 8.68564 12.6875C8.68763 12.4007 8.69858 12.1129 8.68465 11.8261C8.67002 11.5973 8.6421 11.3695 8.60102 11.144C8.52195 10.6814 8.49158 10.2118 8.51042 9.7429C8.52236 9.47602 8.50146 9.20617 8.55821 8.94228C8.57215 8.87656 8.57612 8.80884 8.59504 8.74511C8.81009 8.01818 8.82303 7.27333 8.79814 6.52649C8.78841 6.36417 8.7634 6.20314 8.72347 6.04552C8.64912 5.73836 8.61895 5.42216 8.63387 5.10648C8.64383 4.93421 8.64383 4.76094 8.6279 4.58967C8.60998 4.40345 8.67568 4.23218 8.6936 4.05293C8.70017 4.01538 8.71952 3.98126 8.74836 3.95634C8.90168 3.8229 9.06396 3.71138 9.28598 3.73527C9.4401 3.74557 9.59384 3.71024 9.72802 3.63371C9.95004 3.52019 10.176 3.42458 10.4289 3.39471C10.5404 3.38276 10.6529 3.34094 10.7565 3.29314C11.1657 3.10394 11.5957 2.97051 12.0308 2.86097C12.5784 2.72156 13.11 2.53734 13.6307 2.31826C13.8418 2.22864 14.0538 2.14101 14.2679 2.05936C14.4929 1.97471 14.706 1.87215 14.913 1.74967C15.1619 1.60328 15.4307 1.50371 15.7175 1.45889C16.1436 1.39218 16.5617 1.29757 16.959 1.1243C17.1083 1.05958 17.2577 0.992858 17.4 0.915186C17.7634 0.721006 18.1397 0.557698 18.535 0.442186C18.6465 0.409325 18.755 0.377458 18.8406 0.292815C18.8864 0.248004 18.9462 0.25199 19.0029 0.260952C19.437 0.328666 19.877 0.344598 20.3111 0.415299C20.5361 0.451147 20.7681 0.457125 20.9971 0.465092C21.7717 0.495961 22.5452 0.520855 23.3198 0.549733C23.4632 0.554712 23.6055 0.570646 23.7479 0.57463C23.8624 0.577617 23.9789 0.58359 24.0904 0.563674C24.3194 0.520855 24.5424 0.526825 24.7704 0.585577C25.1696 0.685157 25.5768 0.74192 25.988 0.773785C26.1493 0.786731 26.3105 0.810631 26.4718 0.826564C26.6749 0.84648 26.874 0.824573 27.0662 0.755863C27.2683 0.682174 27.4704 0.661262 27.6845 0.701094C27.8816 0.737939 28.0837 0.750885 28.2848 0.725991C28.3137 0.722007 28.3435 0.716027 28.3704 0.722002C28.5596 0.761834 28.7497 0.718024 28.9379 0.725991C29.129 0.733957 29.3192 0.752873 29.5104 0.761835C29.7115 0.771793 29.9126 0.770801 30.1127 0.781755C30.7529 0.815612 31.393 0.843494 32.0342 0.850465C32.3478 0.853452 32.6624 0.893278 32.977 0.917177C33.0049 0.920164 33.0337 0.926138 33.0616 0.932113C33.1463 0.949042 33.1652 0.987881 33.1333 1.0775C33.1263 1.09543 33.1114 1.10937 33.1044 1.1273C33.0706 1.2219 33.1014 1.27865 33.194 1.2896C33.2996 1.30155 33.4001 1.31052 33.4798 1.20795C33.5106 1.16812 33.5793 1.14721 33.6331 1.14124C33.8135 1.12364 33.9945 1.11201 34.1757 1.10638C34.2233 1.10869 34.2698 1.12126 34.3121 1.14323C34.563 1.25376 34.565 1.28861 34.4096 1.50968C34.3389 1.61091 34.2464 1.69497 34.1388 1.75564C34.0224 1.82335 33.9148 1.90401 33.8013 1.97372C33.5405 2.13305 33.2807 2.29536 33.0148 2.44771C32.7162 2.61799 32.4244 2.80122 32.1437 3.00138C31.8948 3.17863 31.6399 3.3499 31.3831 3.5152C31.1678 3.6585 30.9362 3.77551 30.6931 3.86373C30.493 3.93344 30.3128 4.04198 30.1366 4.15749C29.9454 4.28396 29.7493 4.40445 29.5651 4.54187C29.2167 4.79878 28.8254 4.97803 28.4431 5.1732C28.4003 5.19511 28.3515 5.20706 28.3147 5.23494C28.24 5.29469 28.1554 5.2907 28.0688 5.28672L27.2086 5.25187L26.7217 5.22498C26.5694 5.21602 26.4161 5.20009 26.2637 5.19909C25.746 5.19411 25.2323 5.14233 24.7176 5.09952C24.0406 5.04276 23.3636 5.00292 22.6846 4.96906C22.2461 4.94583 21.8102 4.88654 21.3814 4.79181C21.0369 4.71712 20.6845 4.67332 20.336 4.61357C20.2623 4.60062 20.1897 4.57672 20.116 4.55581L19.7317 4.44527C19.652 4.42237 19.5595 4.44329 19.4977 4.36761C19.5585 4.3228 19.6212 4.27798 19.6809 4.23118C19.6959 4.21923 19.7496 4.20429 19.7078 4.18338C19.5734 4.11367 19.437 4.038 19.2747 4.10372C19.2001 4.1336 19.1453 4.1794 19.1423 4.23715C19.1373 4.29889 19.1762 4.35167 19.2538 4.38652C19.2707 4.39349 19.2906 4.39549 19.3096 4.40046L19.3643 4.4154C19.3514 4.42237 19.3394 4.43333 19.3265 4.43532C19.2645 4.44266 19.2052 4.46452 19.1533 4.49913C19.1014 4.53374 19.0584 4.58011 19.0278 4.63448C19.0119 4.66037 18.9651 4.67431 18.9302 4.67929C18.8835 4.68725 18.8347 4.68028 18.7869 4.68128C18.1266 4.68404 17.4664 4.66279 16.8076 4.61755C16.5886 4.6046 16.3696 4.57771 16.1506 4.55581C15.4566 4.48809 14.7627 4.41341 14.0668 4.35167C13.6676 4.31583 13.2653 4.30188 12.8641 4.274C12.4828 4.24711 12.1015 4.21326 11.7202 4.18538C11.549 4.17343 11.3767 4.16745 11.2045 4.16148C10.7744 4.14654 10.3433 4.13559 9.9132 4.11766C9.77002 4.11029 9.62719 4.097 9.4851 4.07783C9.40986 4.06327 9.33208 4.06946 9.26009 4.09575C9.19339 4.12363 9.14859 4.16845 9.13864 4.24214C9.13067 4.31085 9.18244 4.39349 9.26109 4.41739C9.32381 4.43731 9.39052 4.44727 9.45722 4.45026C9.57172 4.45723 9.6862 4.45224 9.80169 4.45822C10.183 4.47814 10.5653 4.49805 10.9466 4.52494C11.0999 4.5349 11.2533 4.54784 11.4016 4.5817C11.7879 4.67032 12.1782 4.66933 12.5704 4.68626C13.115 4.70916 13.6606 4.70817 14.2002 4.79978C14.2759 4.81272 14.3495 4.83363 14.4252 4.84558C14.4849 4.85554 14.5297 4.88243 14.5626 4.93521C14.6472 5.06964 14.7846 5.11246 14.929 5.13436C15.0703 5.15428 15.2137 5.17121 15.3571 5.17718C15.5004 5.18316 15.6408 5.19113 15.7802 5.23893C15.8499 5.26282 15.9355 5.2688 16.0062 5.25187C16.2003 5.20607 16.3995 5.16225 16.5797 5.0796C16.6719 5.03314 16.7757 5.01446 16.8783 5.02582C17.2865 5.07561 17.6987 5.08956 18.1099 5.08259C18.2244 5.08159 18.3389 5.0786 18.4544 5.07263C18.7331 5.06068 19.0059 5.09255 19.2797 5.15329C19.5684 5.21702 19.8611 5.26282 20.1548 5.30166C20.3639 5.32954 20.574 5.31759 20.784 5.28174C21.1713 5.21602 21.5596 5.16524 21.9528 5.23694C21.9807 5.24191 22.0096 5.23992 22.0385 5.24191L23.73 5.3156C23.9112 5.32356 24.0904 5.34248 24.2656 5.39825C24.3452 5.42414 24.4349 5.42812 24.5195 5.42812C24.8371 5.42812 25.1487 5.47692 25.4613 5.51576C25.7361 5.54961 26.0119 5.57351 26.2876 5.60438C26.4201 5.61832 26.5525 5.63824 26.6859 5.65417C27.1219 5.70894 27.557 5.76172 27.9931 5.82047C28.021 5.82445 28.0618 5.86528 28.0668 5.89416C28.0797 5.96784 28.0727 6.04652 28.0797 6.12319C28.0936 6.28252 28.0488 6.44085 28.0777 6.60516C28.1036 6.75453 28.0857 6.91086 28.0857 7.06322V9.01597H28.0777V9.01597ZM11.4962 11.7474C11.1905 11.62 10.8829 11.6718 10.5753 11.7305C10.4966 11.7454 10.4578 11.7992 10.4568 11.8699C10.4568 11.9466 10.5135 12.0093 10.6021 12.0123C10.6768 12.0143 10.7515 12.0014 10.8262 11.9954C10.9397 11.9864 11.0522 11.9755 11.1647 11.9705C11.2204 11.9695 11.2772 11.9864 11.3339 11.9884C11.4643 11.9954 11.5061 11.9456 11.4972 11.7942C11.4962 11.7753 11.4902 11.7574 11.4872 11.7385C11.6366 11.8112 11.758 11.7644 11.8656 11.6548C11.9044 11.617 11.9163 11.5413 11.8904 11.4985C11.8636 11.4547 11.8207 11.4387 11.771 11.4387C11.6955 11.439 11.6226 11.4658 11.5649 11.5144C11.4872 11.5791 11.5002 11.6648 11.4952 11.7474H11.4962ZM26.2478 10.2806C26.2518 10.3473 26.2498 10.4151 26.2598 10.4808C26.2736 10.5953 26.318 10.704 26.3882 10.7955C26.4264 10.8454 26.482 10.8792 26.5439 10.8902C26.6058 10.9013 26.6696 10.8888 26.7227 10.8552C26.81 10.7952 26.8762 10.7092 26.9119 10.6095C26.9476 10.5098 26.9511 10.4014 26.9218 10.2995C26.8676 10.124 26.8804 9.93451 26.9577 9.76779C26.9937 9.67965 27.0116 9.58517 27.0104 9.48997C27.0132 9.35635 27.0265 9.22316 27.0503 9.09165C27.0662 8.99904 27.0682 8.90145 27.0612 8.80685C27.0574 8.75847 27.0389 8.7124 27.0084 8.67471C26.9778 8.63702 26.9365 8.60949 26.89 8.59575C26.8136 8.56652 26.7309 8.55749 26.65 8.56952C26.5691 8.58156 26.4926 8.61425 26.428 8.66445C26.393 8.6899 26.364 8.7227 26.343 8.76054C26.3221 8.79839 26.3096 8.84036 26.3066 8.88353C26.2966 9.009 26.2946 9.13646 26.3543 9.24899C26.43 9.39039 26.4081 9.52283 26.3583 9.66224C26.2845 9.85966 26.247 10.0688 26.2478 10.2796V10.2806ZM24.1571 9.80762C24.2367 9.8136 24.2666 9.81958 24.2935 9.81758C24.3761 9.80763 24.4319 9.72995 24.4129 9.65427C24.404 9.62189 24.3834 9.59396 24.3551 9.57593C24.3268 9.5579 24.2927 9.55104 24.2596 9.55669C24.2238 9.56465 24.179 9.5756 24.1591 9.60149C24.1123 9.66124 24.0695 9.64631 24.0117 9.62141C23.8893 9.57162 23.7608 9.53578 23.6384 9.48499C23.4871 9.42325 23.3417 9.44018 23.1924 9.49096C23.0674 9.53799 22.9384 9.57366 22.8071 9.59751C22.5512 9.63535 22.3441 9.7668 22.146 9.91816C22.053 9.98812 21.9911 10.0918 21.9738 10.2069C21.9668 10.2438 21.9558 10.2816 21.9558 10.3195C21.9558 10.4429 21.8842 10.5087 21.7786 10.5525C21.6024 10.6262 21.4272 10.7018 21.233 10.7108C21.1653 10.7138 21.0986 10.7208 21.0469 10.7706C21.01 10.8054 20.9901 10.8482 21.0041 10.899C21.018 10.9458 21.0439 10.9856 21.0976 10.9966C21.1156 11.0006 21.1345 11.0046 21.1534 11.0056C21.459 11.0185 21.7368 10.9239 21.9996 10.7835C22.0643 10.7515 22.1203 10.7043 22.1629 10.6461C22.2055 10.5879 22.2335 10.5202 22.2446 10.4489C22.2913 10.1771 22.4706 10.0187 22.7185 9.92513C22.7762 9.90322 22.831 9.90023 22.8758 9.95002C22.9315 10.0128 23.0032 10.0307 23.0828 10.0257C23.1864 10.0187 23.2919 10.0118 23.3955 9.99683C23.5448 9.97492 23.6941 9.94206 23.8455 9.92114C23.941 9.9072 24.0346 9.90123 24.1073 9.82455C24.1282 9.80364 24.172 9.80364 24.1571 9.80762V9.80762ZM12.1692 15.8889L12.1682 15.882C12.0537 15.882 11.9392 15.88 11.8247 15.882C11.7911 15.8827 11.758 15.8911 11.7281 15.9066C11.6983 15.9222 11.6724 15.9444 11.6525 15.9716C11.6087 16.0274 11.6246 16.118 11.6873 16.1439C11.713 16.1563 11.7406 16.1641 11.769 16.1668C11.988 16.1717 12.208 16.1807 12.4271 16.1777C12.656 16.1747 12.885 16.1608 13.113 16.1518C13.1608 16.1498 13.2096 16.1568 13.2554 16.1488C13.3868 16.1249 13.5162 16.0911 13.6437 16.1668C13.6656 16.1797 13.7014 16.1767 13.7283 16.1707C13.8955 16.1349 14.0628 16.0981 14.2291 16.0582C14.3077 16.0393 14.3764 15.9935 14.3983 15.9168C14.4322 15.7993 14.5128 15.7764 14.6154 15.7774C14.6731 15.7774 14.7299 15.7814 14.7866 15.7774C14.8424 15.7744 14.9001 15.7206 14.9091 15.6728C14.9125 15.6443 14.9074 15.6154 14.8945 15.5897C14.8815 15.564 14.8613 15.5427 14.8364 15.5285C14.7951 15.5056 14.7498 15.4908 14.703 15.4846C14.6174 15.4779 14.5313 15.4799 14.4461 15.4906C14.3097 15.5105 14.1873 15.5583 14.1315 15.7037C14.1186 15.7366 14.0897 15.7814 14.0618 15.7874C13.9254 15.8133 13.797 15.8899 13.6477 15.8391C13.579 15.8152 13.4983 15.8192 13.4246 15.8192C13.2723 15.8232 13.12 15.8332 12.9667 15.8401C12.8432 15.8461 12.7198 15.8501 12.5953 15.8571C12.4529 15.866 12.3116 15.877 12.1692 15.8889V15.8889ZM24.5842 13.7579L24.5812 13.742C24.4906 13.7639 24.398 13.7848 24.3084 13.8117C24.2606 13.8247 24.2517 13.8615 24.2955 13.8914C24.402 13.9611 24.41 14.0427 24.3751 14.1602C24.3588 14.2435 24.3622 14.3295 24.3851 14.4112C24.405 14.5038 24.4757 14.5606 24.5722 14.5566C24.8709 14.5456 25.1606 14.5984 25.4523 14.6442C25.6883 14.682 25.9063 14.6133 26.1174 14.5247C26.2269 14.4789 26.2389 14.3046 26.1373 14.2379C26.0745 14.1958 26.0024 14.1695 25.9272 14.1612C25.7663 14.1466 25.6043 14.1469 25.4434 14.1622C25.3401 14.1726 25.236 14.1726 25.1328 14.1622C24.9516 14.1483 24.8201 14.0786 24.8062 13.8754C24.8052 13.8565 24.8002 13.8336 24.7873 13.8217C24.7624 13.7955 24.7322 13.7752 24.6987 13.7619C24.6638 13.751 24.623 13.7589 24.5852 13.7589L24.5842 13.7579ZM13.1479 19.0456L12.8661 19.1073C12.8601 19.1093 12.8562 19.1293 12.8562 19.1412C12.8562 19.1452 12.8721 19.1512 12.881 19.1512C12.9 19.1541 12.9199 19.1512 12.9378 19.1561C13.0015 19.1701 13.0095 19.183 12.9776 19.2209C12.9458 19.2567 12.9 19.2856 12.885 19.3264C12.8701 19.3662 12.8711 19.426 12.893 19.4599C12.9149 19.4927 12.9726 19.5226 13.0125 19.5196C13.0762 19.5166 13.1389 19.4828 13.2036 19.4668C13.3141 19.4399 13.4246 19.4051 13.5371 19.3971C13.6267 19.3911 13.7064 19.4001 13.7612 19.3095C13.7711 19.2916 13.8109 19.2796 13.8348 19.2826C14.031 19.3145 14.2002 19.184 14.3923 19.191C14.4471 19.193 14.4909 19.1253 14.4929 19.0685C14.4969 19.0008 14.4481 18.9291 14.3804 18.9241C14.1574 18.9062 13.9413 18.9161 13.7801 19.1053C13.7532 19.1372 13.7223 19.1452 13.6805 19.1372C13.5113 19.1054 13.343 19.0795 13.1479 19.0466V19.0456ZM22.9823 17.8984C23.0062 17.8955 23.0649 17.8965 23.1177 17.8805C23.1519 17.8666 23.1796 17.8403 23.1953 17.8068C23.2172 17.759 23.1973 17.7083 23.1555 17.6814C23.1112 17.6464 23.0588 17.6231 23.0032 17.6137C22.9518 17.612 22.9014 17.599 22.8556 17.5756C22.8098 17.5522 22.7698 17.5189 22.7384 17.4782C22.6368 17.3587 22.4915 17.3508 22.3451 17.3786C22.3265 17.3821 22.3087 17.3895 22.2931 17.4004C22.2776 17.4112 22.2644 17.4252 22.2546 17.4415C22.2449 17.4578 22.2386 17.476 22.2364 17.4948C22.2341 17.5137 22.2359 17.5328 22.2416 17.5509C22.2625 17.6127 22.3023 17.6684 22.2764 17.7371C22.3381 17.7501 22.4019 17.76 22.4636 17.774C22.5084 17.7839 22.5602 17.7899 22.596 17.8158C22.7035 17.8935 22.827 17.8915 22.9823 17.8984V17.8984ZM15.2914 14.9609C15.1739 14.9808 15.0146 15.0057 14.8553 15.0336C14.8374 15.0365 14.8205 15.0475 14.8035 15.0565C14.7518 15.0843 14.7179 15.1461 14.7259 15.1979C14.7307 15.2262 14.7445 15.2522 14.7653 15.2719C14.7862 15.2917 14.8128 15.3041 14.8414 15.3074C14.8981 15.3134 14.9549 15.3104 15.0126 15.3134C15.0773 15.3174 15.0604 15.3403 15.0305 15.3781C14.9847 15.4359 14.9768 15.5006 15.0295 15.5593C15.0773 15.6121 15.1679 15.6171 15.2406 15.5773C15.2698 15.561 15.2917 15.5343 15.3021 15.5026C15.3124 15.4708 15.3104 15.4363 15.2963 15.406C15.2864 15.3811 15.2565 15.3622 15.2506 15.3363C15.2456 15.3164 15.2605 15.2805 15.2764 15.2725C15.3103 15.2566 15.3501 15.2566 15.3859 15.2457C15.5024 15.2098 15.5652 15.1421 15.5433 15.0774C15.5174 15.0007 15.4487 14.9629 15.2914 14.9619V14.9609ZM19.7078 12.7233C19.6779 12.6725 19.663 12.6247 19.6311 12.5939C19.5951 12.5636 19.5535 12.5406 19.5087 12.5261C19.2926 12.4445 19.0637 12.4266 18.8386 12.3877C18.8207 12.3847 18.8008 12.3907 18.7829 12.3947C18.7361 12.4047 18.6724 12.4744 18.6833 12.5192C18.6939 12.564 18.7166 12.605 18.7491 12.6377C18.7729 12.6616 18.8187 12.6656 18.8546 12.6735C19.0776 12.7233 19.3066 12.7432 19.5216 12.8269C19.5455 12.8368 19.5833 12.8348 19.6043 12.8219C19.6411 12.798 19.669 12.7621 19.7078 12.7233V12.7233ZM19.0646 2.09022C18.987 2.10018 18.8635 2.11412 18.7411 2.13404C18.7052 2.14001 18.6614 2.15097 18.6365 2.17486C18.6041 2.20808 18.5811 2.24932 18.5698 2.29436C18.5599 2.33917 18.6206 2.41187 18.6694 2.41983C18.7062 2.4268 18.7471 2.43576 18.7819 2.4268C18.98 2.379 19.1801 2.38697 19.3812 2.39095C19.4191 2.39293 19.4569 2.38504 19.4908 2.36805C19.5206 2.35012 19.5525 2.31527 19.5575 2.28341C19.5624 2.25154 19.5455 2.19877 19.5206 2.18283C19.4657 2.14573 19.4042 2.11937 19.3394 2.10516C19.2658 2.09022 19.1871 2.0952 19.0646 2.09022V2.09022ZM20.3081 13.2451C20.3002 13.2063 20.3032 13.1734 20.2882 13.1555C20.2584 13.1196 20.2235 13.0758 20.1837 13.0659C19.9746 13.0051 19.7626 12.9523 19.5505 12.8996C19.5246 12.8936 19.4937 12.9035 19.4669 12.9095C19.4191 12.9225 19.3583 12.9952 19.3723 13.038C19.3888 13.0809 19.4147 13.1197 19.4479 13.1515C19.4649 13.1694 19.4987 13.1734 19.5266 13.1804C19.7018 13.2222 19.877 13.265 20.0533 13.3049C20.0981 13.3148 20.1488 13.3268 20.1927 13.3168C20.2325 13.3068 20.2683 13.271 20.3081 13.2451V13.2451ZM25.5051 19.0406C25.8556 19.0476 25.8566 19.0476 25.9561 18.7499C25.9747 18.6967 25.9871 18.6416 25.9929 18.5855C25.9949 18.5676 25.9671 18.5328 25.9471 18.5278C25.8456 18.5049 25.7311 18.486 25.6475 18.5467C25.5987 18.5826 25.5867 18.6792 25.5738 18.7518C25.5539 18.8654 25.4971 18.941 25.3876 18.9789C25.3707 18.9849 25.3518 18.9888 25.3349 18.9968C25.3269 19.0008 25.3229 19.0108 25.3169 19.0187C25.3249 19.0207 25.3329 19.0257 25.3418 19.0267L25.5051 19.0406V19.0406ZM25.0402 1.50669C25.1158 1.49474 25.2383 1.47881 25.3588 1.45192C25.3886 1.44495 25.4324 1.39914 25.4304 1.37524C25.4275 1.33342 25.4026 1.27367 25.3687 1.25774C25.2786 1.21359 25.1806 1.18785 25.0804 1.18203C24.9802 1.17622 24.8799 1.19045 24.7853 1.22389C24.7266 1.2438 24.6957 1.29359 24.6967 1.35732C24.6977 1.42404 24.7475 1.48179 24.8211 1.49275C24.8769 1.50071 24.9346 1.50071 25.0402 1.50669V1.50669ZM17.172 14.2558C17.1919 14.2519 17.2238 14.2519 17.2457 14.2369C17.2756 14.217 17.3114 14.1891 17.3184 14.1592C17.3203 14.1412 17.3181 14.1229 17.3119 14.1058C17.3057 14.0887 17.2956 14.0733 17.2825 14.0607C17.2318 14.0192 17.1751 13.9856 17.1143 13.9611C16.8564 13.8585 16.723 13.8954 16.5478 14.1095L16.5299 14.1314C16.497 14.1722 16.505 14.2041 16.5528 14.209C16.6533 14.219 16.7499 14.2469 16.8584 14.226C16.955 14.207 17.0615 14.2439 17.172 14.2558V14.2558ZM14.478 5.89814C14.4411 5.90511 14.3655 5.91407 14.2928 5.93299C14.2599 5.9404 14.231 5.95982 14.2116 5.98744C14.1923 6.01507 14.184 6.04892 14.1883 6.08236C14.1942 6.13514 14.241 6.19588 14.2978 6.19787C14.467 6.20385 14.6383 6.20584 14.8085 6.20086C14.8543 6.19986 14.8941 6.16004 14.9031 6.10726C14.913 6.05349 14.8812 6.01763 14.8414 5.98975C14.7438 5.92403 14.6323 5.90411 14.478 5.89814V5.89814ZM27.7233 3.4206C27.778 3.41662 27.8746 3.41861 27.9672 3.39969C28.005 3.39173 28.0419 3.34492 28.0648 3.30609C28.0877 3.26725 28.0429 3.19456 27.9901 3.16668C27.9652 3.15373 27.9383 3.13681 27.9114 3.13481C27.7691 3.12984 27.6257 3.12485 27.4823 3.12983C27.4405 3.13182 27.3947 3.1627 27.3599 3.19157C27.2932 3.24535 27.3191 3.3738 27.3987 3.40268C27.4246 3.41264 27.4535 3.41861 27.4823 3.41961C27.549 3.4216 27.6158 3.41961 27.7233 3.41961V3.4206ZM22.7812 12.2593C22.6244 12.2683 22.4769 12.3363 22.368 12.4495C22.3467 12.4752 22.3346 12.5073 22.3337 12.5407C22.3328 12.5741 22.3431 12.6068 22.363 12.6337C22.4048 12.6835 22.4646 12.6944 22.5173 12.6685C22.6527 12.6008 22.7961 12.558 22.9395 12.5122C23.0271 12.4843 23.1107 12.3778 23.0828 12.3579C23.039 12.328 22.9853 12.312 22.9335 12.2961C22.8797 12.2792 22.824 12.2692 22.7812 12.2593ZM13.6447 3.32999C13.579 3.34293 13.4923 3.3499 13.4137 3.37977C13.3788 3.39372 13.349 3.44848 13.338 3.48931C13.3261 3.5401 13.3679 3.57694 13.4117 3.59885C13.4372 3.6118 13.4643 3.62118 13.4923 3.62673C13.6148 3.64864 13.7363 3.66657 13.8587 3.68648C13.9593 3.70441 13.9881 3.68449 14.01 3.57794C14.0379 3.44749 13.9941 3.3748 13.8647 3.35189C13.799 3.34094 13.7313 3.33895 13.6447 3.32999ZM23.2899 1.21492C23.4243 1.23086 23.494 1.23185 23.5408 1.17509C23.5976 1.10439 23.6702 1.10837 23.7479 1.10738C23.7688 1.10738 23.8126 1.11036 23.7947 1.06555C23.7838 1.04027 23.7634 1.02026 23.7379 1.00979C23.6284 0.978918 23.5179 0.953028 23.4074 0.926142C23.2959 0.899255 23.1814 0.875353 23.0739 0.932113C23.0349 0.956692 23.0052 0.993451 22.9893 1.03667C22.9723 1.08049 23.0241 1.15417 23.0769 1.16812C23.1685 1.19201 23.262 1.20795 23.2899 1.21492ZM17.17 10.0745C17.0924 10.0795 17.0406 10.0715 16.9998 10.0884C16.9496 10.1085 16.9057 10.1415 16.8724 10.184C16.8495 10.2139 16.9221 10.3234 16.9689 10.3434C16.9856 10.352 17.0033 10.3584 17.0217 10.3623C17.1242 10.3782 17.2268 10.3971 17.3303 10.4061C17.3771 10.4082 17.4238 10.4011 17.4677 10.3852C17.5245 10.3663 17.5643 10.3254 17.5673 10.2617C17.5677 10.2333 17.5588 10.2055 17.5419 10.1826C17.525 10.1598 17.501 10.1431 17.4737 10.1352C17.3642 10.1084 17.2517 10.0904 17.17 10.0745V10.0745ZM9.79274 7.25441C9.73499 7.26238 9.67426 7.25939 9.62349 7.2793C9.56178 7.30343 9.50532 7.33928 9.45722 7.38486C9.41441 7.42569 9.41341 7.48842 9.44228 7.54418C9.46717 7.59099 9.51497 7.62285 9.55977 7.60792C9.71508 7.55414 9.87637 7.55813 10.0377 7.54718C10.1143 7.5412 10.1561 7.42768 10.0994 7.37092C10.0601 7.33017 10.0126 7.29825 9.95999 7.27731C9.90922 7.2574 9.84849 7.26138 9.79373 7.25441H9.79274ZM12.7237 16.4914C12.6053 16.4984 12.4997 16.5123 12.4141 16.578C12.3689 16.6115 12.334 16.6571 12.3136 16.7095C12.3016 16.7463 12.3165 16.809 12.3434 16.8379C12.3703 16.8668 12.433 16.8897 12.4689 16.8778C12.6033 16.8329 12.7327 16.7722 12.8641 16.7184C12.9169 16.6965 12.9706 16.6796 13.0214 16.6557C13.0304 16.6517 13.0344 16.6139 13.0274 16.6069C12.9416 16.5368 12.8354 16.4962 12.7247 16.4914H12.7237ZM17.4976 16.9933C17.5573 16.9863 17.6698 16.9734 17.7813 16.9584C17.8277 16.9533 17.8734 16.9433 17.9177 16.9285C17.9675 16.9116 17.9944 16.8429 17.9834 16.7852C17.9799 16.7616 17.9695 16.7396 17.9536 16.7219C17.9377 16.7042 17.9169 16.6916 17.8938 16.6856C17.8361 16.6686 17.7594 16.6637 17.7345 16.7115C17.6639 16.8559 17.5553 16.811 17.4458 16.7911C17.4084 16.7863 17.3703 16.7876 17.3333 16.7951C17.3096 16.7975 17.287 16.8066 17.2683 16.8214C17.2496 16.8363 17.2355 16.8562 17.2278 16.8788C17.2178 16.9056 17.2109 16.9335 17.2029 16.9604C17.181 17.0401 17.2109 17.0759 17.2815 17.057C17.3363 17.0421 17.3911 17.0251 17.4976 16.9933V16.9933ZM17.4747 2.16192L17.8092 2.19678C17.8451 2.20076 17.8789 2.14698 17.862 2.11711C17.847 2.09222 17.8301 2.07031 17.8142 2.04641C17.7558 1.95938 17.6675 1.89675 17.5661 1.87033C17.4647 1.84392 17.3571 1.85554 17.2636 1.90302C17.2473 1.91229 17.2322 1.92367 17.2188 1.93687C17.181 1.97172 17.1591 2.05438 17.189 2.09521C17.2168 2.12906 17.2587 2.15794 17.3005 2.17287C17.3323 2.18383 17.3741 2.16988 17.4747 2.16291V2.16192ZM31.619 1.37126C31.6359 1.37425 31.6837 1.38918 31.7295 1.3862C31.8132 1.37923 31.8978 1.36628 31.9804 1.34736C32.0392 1.33441 32.0621 1.2677 32.0511 1.18106C32.0431 1.11733 31.9904 1.11335 31.9456 1.11136C31.85 1.10936 31.7554 1.11733 31.6608 1.11235C31.5897 1.10814 31.5188 1.12233 31.4548 1.15355C31.3908 1.18477 31.3359 1.23198 31.2955 1.2906C31.2855 1.30255 31.2765 1.32943 31.2815 1.33342C31.2964 1.34508 31.3144 1.35202 31.3333 1.35334C31.4179 1.36031 31.5035 1.36429 31.619 1.37126V1.37126ZM16.4383 9.80563C16.5179 9.79667 16.6036 9.79468 16.6872 9.77676C16.717 9.77078 16.7519 9.73294 16.7638 9.70107C16.7808 9.65427 16.7579 9.60846 16.718 9.5756C16.7037 9.56337 16.6876 9.55331 16.6703 9.54573C16.5229 9.48598 16.3716 9.49993 16.2203 9.52582C16.2018 9.53112 16.1853 9.54146 16.1725 9.55569C16.1386 9.58855 16.0968 9.6254 16.1197 9.67718C16.1376 9.71701 16.1695 9.76879 16.2063 9.77974C16.277 9.80065 16.3556 9.79767 16.4383 9.80464V9.80563ZM24.846 7.67563L24.848 7.6597C24.9426 7.6597 25.0372 7.66568 25.1318 7.65771C25.1855 7.65173 25.2383 7.62485 25.2901 7.60394C25.302 7.59796 25.313 7.57406 25.312 7.55813C25.311 7.54319 25.297 7.51829 25.2851 7.51531C25.0929 7.46452 24.8988 7.42569 24.6987 7.46851C24.6169 7.48694 24.5362 7.50954 24.4568 7.53622C24.4418 7.5402 24.4249 7.5641 24.4249 7.57904C24.4249 7.59298 24.4438 7.61887 24.4568 7.61987C24.5862 7.63978 24.7166 7.65771 24.846 7.67563V7.67563ZM16.5597 2.68471C16.6493 2.6638 16.734 2.65086 16.8116 2.62298C16.8564 2.60804 16.8823 2.56223 16.8793 2.50845C16.8763 2.4802 16.8651 2.45345 16.847 2.4315C16.829 2.40956 16.8049 2.39338 16.7778 2.38498C16.7678 2.38298 16.7589 2.38 16.7499 2.38C16.6271 2.38121 16.5043 2.38287 16.3815 2.38498C16.3716 2.38498 16.3596 2.38697 16.3537 2.39295C16.3238 2.4268 16.278 2.45867 16.273 2.49651C16.267 2.53435 16.2929 2.60007 16.3228 2.61501C16.3965 2.65086 16.4811 2.6628 16.5597 2.68471V2.68471ZM16.8515 6.8541H16.8057C16.732 6.85809 16.6762 6.90588 16.6693 6.9716C16.6658 7.0046 16.6739 7.03778 16.6923 7.06542C16.7106 7.09305 16.738 7.11341 16.7698 7.12297C16.8495 7.14686 16.9341 7.16878 17.0167 7.17276C17.0816 7.17284 17.1458 7.16033 17.2059 7.13591C17.2228 7.12885 17.238 7.11827 17.2506 7.10488C17.2631 7.09149 17.2726 7.07559 17.2786 7.05824C17.2915 7.00845 17.2527 6.9716 17.2119 6.94571C17.1021 6.88337 16.9776 6.85173 16.8515 6.8541V6.8541ZM29.4835 2.71857C29.5522 2.70662 29.6358 2.69567 29.7174 2.67775C29.7662 2.6658 29.807 2.62795 29.8041 2.57816C29.8011 2.53733 29.7792 2.48058 29.7463 2.46066C29.597 2.36905 29.4417 2.37901 29.2893 2.45966C29.2445 2.48356 29.2137 2.55825 29.2366 2.60804C29.2566 2.64865 29.289 2.68179 29.3292 2.70263C29.369 2.72056 29.4208 2.7126 29.4835 2.71857V2.71857ZM20.9672 13.6982C21.0867 13.6942 21.1404 13.6584 21.1474 13.6056C21.1554 13.5458 21.1395 13.4941 21.0857 13.4592C21.0777 13.4542 21.0708 13.4463 21.0618 13.4443C20.9523 13.4194 20.8428 13.3905 20.7333 13.3736C20.6994 13.3676 20.6606 13.3885 20.6267 13.4034C20.5769 13.4234 20.56 13.4672 20.56 13.517C20.56 13.5677 20.5829 13.6135 20.6327 13.6265C20.7601 13.6574 20.8896 13.6813 20.9672 13.6982ZM13.1399 8.71026C13.2215 8.70329 13.3092 8.70528 13.3908 8.68437C13.4266 8.67541 13.4635 8.62562 13.4774 8.58579C13.4864 8.5599 13.4595 8.51608 13.4396 8.48621C13.4233 8.46282 13.3999 8.44535 13.3729 8.43642C13.246 8.39371 13.1081 8.39724 12.9836 8.44638C12.9667 8.45434 12.9458 8.46629 12.9398 8.48222C12.9209 8.52305 12.895 8.56886 12.899 8.60969C12.9029 8.6555 12.9418 8.69532 12.9945 8.70229C13.0413 8.70827 13.0891 8.70827 13.1399 8.71026V8.71026ZM18.1676 16.2763C18.3428 16.2753 18.4802 16.2066 18.6316 16.0513C18.6415 16.0413 18.6316 15.9935 18.6196 15.9885C18.5788 15.9686 18.53 15.9457 18.4872 15.9497C18.375 15.9635 18.2636 15.9838 18.1537 16.0104C18.088 16.0254 18.0372 16.106 18.0392 16.1897C18.0392 16.2126 18.0611 16.2444 18.082 16.2554C18.1139 16.2713 18.1537 16.2733 18.1686 16.2763H18.1676ZM20.8358 4.09376C20.9184 4.06986 21.0021 4.05294 21.0787 4.02107C21.1414 3.99618 21.1434 3.88863 21.0857 3.85179C21.0181 3.80776 20.9408 3.78085 20.8605 3.77339C20.7802 3.76593 20.6993 3.77814 20.6247 3.80896C20.6148 3.81195 20.6028 3.81593 20.5998 3.8229C20.5829 3.86373 20.555 3.90656 20.555 3.94838C20.555 3.97825 20.5849 4.02605 20.6128 4.037C20.6825 4.06389 20.7581 4.07484 20.8358 4.09376V4.09376ZM20.5491 8.75905C20.5471 8.75905 20.4804 8.76503 20.4167 8.77897C20.3609 8.79192 20.3271 8.85266 20.331 8.9124C20.335 8.97414 20.3738 9.02891 20.4286 9.03688C20.5321 9.05381 20.6357 9.06675 20.7392 9.07572C20.795 9.08069 20.8547 9.03489 20.8697 8.98311C20.8876 8.92237 20.8667 8.86959 20.8249 8.82776C20.7671 8.77001 20.6914 8.75706 20.5491 8.75806V8.75905ZM20.2912 14.214L20.2474 14.217C20.1747 14.222 20.115 14.2728 20.111 14.3345C20.106 14.4012 20.1459 14.444 20.2006 14.464C20.2962 14.4988 20.3948 14.5287 20.4953 14.5516C20.5278 14.5581 20.5615 14.5527 20.5904 14.5365C20.6193 14.5202 20.6413 14.4941 20.6526 14.463C20.6665 14.4162 20.6407 14.3455 20.5929 14.3156C20.5034 14.2558 20.3996 14.2208 20.2922 14.214H20.2912ZM29.149 3.16966L29.0464 3.20253C29.0584 3.23539 29.0823 3.27024 29.0793 3.30211C29.0733 3.36385 29.0803 3.4216 29.134 3.45148C29.2545 3.52118 29.3819 3.5411 29.5104 3.46641C29.5791 3.42658 29.586 3.32003 29.5223 3.27422C29.4131 3.19847 29.2816 3.16164 29.149 3.16966V3.16966ZM16.3656 3.86473C16.2889 3.87269 16.2023 3.83884 16.1575 3.92448C16.0948 4.04497 16.1117 4.14156 16.2073 4.23317C16.2342 4.25906 16.267 4.27898 16.2999 4.2979C16.3203 4.31016 16.3439 4.31605 16.3677 4.3148C16.3914 4.31356 16.4143 4.30525 16.4333 4.29093C16.4578 4.27568 16.4764 4.25271 16.4863 4.22565C16.4963 4.19859 16.4969 4.169 16.4881 4.14156C16.4743 4.09694 16.4516 4.0556 16.4214 4.02007C16.3805 3.96929 16.3915 3.94041 16.4482 3.91949C16.4512 3.9185 16.4482 3.88266 16.4433 3.88066C16.4164 3.87071 16.3885 3.86871 16.3666 3.86473H16.3656ZM22.156 14.3345C22.2137 14.3295 22.2615 14.3295 22.3073 14.3206C22.3307 14.317 22.3524 14.3059 22.369 14.2891C22.3857 14.2722 22.3965 14.2504 22.3999 14.227C22.4049 14.2037 22.4025 14.1795 22.393 14.1577C22.3836 14.1359 22.3675 14.1177 22.3471 14.1055C22.2286 14.0278 22.0982 14.0308 21.9658 14.0557C21.915 14.0666 21.8712 14.1314 21.8732 14.1851C21.8742 14.2369 21.918 14.2977 21.9718 14.3086C22.0355 14.3226 22.1012 14.3275 22.156 14.3345V14.3345ZM25.7859 16.6607L25.4245 16.7732C25.4185 16.7742 25.4125 16.7891 25.4145 16.7931C25.4225 16.8081 25.4324 16.831 25.4444 16.833C25.6007 16.8588 25.758 16.8847 25.9153 16.9056C25.9989 16.9176 26.0547 16.8887 26.0517 16.8459C26.0502 16.8177 26.041 16.7906 26.025 16.7674C26.009 16.7441 25.9869 16.7258 25.9611 16.7145C25.9113 16.6906 25.8556 16.6816 25.7859 16.6607V16.6607ZM9.96198 13.5249V13.5299C10.0098 13.5269 10.0576 13.5279 10.1034 13.5199C10.1581 13.51 10.183 13.4662 10.181 13.4164C10.1806 13.3786 10.1696 13.3416 10.1492 13.3098C10.0795 13.2152 9.90822 13.1923 9.81463 13.262C9.76485 13.2999 9.75192 13.3556 9.76187 13.4164C9.76633 13.4446 9.77997 13.4705 9.80067 13.4901C9.82138 13.5097 9.84799 13.522 9.87636 13.5249C9.90524 13.5279 9.93411 13.5249 9.96198 13.5249V13.5249ZM21.7756 2.82911C21.8165 2.81616 21.8802 2.79724 21.9419 2.77633C21.9787 2.76338 21.9668 2.7355 21.9578 2.70961C21.913 2.57617 21.8543 2.53335 21.7328 2.54829C21.6998 2.55155 21.669 2.56647 21.6461 2.59038C21.6231 2.61429 21.6094 2.64562 21.6074 2.67874C21.6054 2.74944 21.6791 2.82512 21.7756 2.82811V2.82911ZM9.83256 15.0843C9.8455 15.0156 9.80667 14.9629 9.72702 14.9439C9.63045 14.92 9.54483 14.9698 9.53587 15.0555C9.53094 15.0883 9.539 15.1217 9.55834 15.1487C9.57767 15.1756 9.60676 15.194 9.63942 15.1998C9.73798 15.2178 9.81464 15.172 9.83256 15.0843V15.0843ZM12.7745 11.5224C12.7486 11.5323 12.6779 11.5572 12.6092 11.5861C12.5973 11.5911 12.5873 11.617 12.5893 11.6329C12.5903 11.6479 12.6043 11.6708 12.6172 11.6747C12.6809 11.6947 12.7447 11.7116 12.8104 11.7245C12.903 11.7415 12.9846 11.6877 12.9766 11.619C12.9707 11.5592 12.9089 11.5194 12.7745 11.5224V11.5224ZM23.9231 14.0069C23.9177 13.974 23.9014 13.9439 23.8768 13.9213C23.8523 13.8988 23.8209 13.8851 23.7877 13.8824C23.7101 13.8804 23.6503 13.9601 23.6663 14.0417C23.6802 14.1114 23.7429 14.1582 23.8106 14.1493C23.8753 14.1413 23.9301 14.0696 23.9241 14.0069H23.9231ZM29.2147 1.47284C29.2883 1.47284 29.3272 1.47781 29.364 1.47183C29.3839 1.46785 29.4008 1.44595 29.4188 1.43201C29.4058 1.41807 29.3949 1.40114 29.3789 1.39317C29.3193 1.364 29.2538 1.34909 29.1874 1.34961C29.1211 1.35013 29.0558 1.36606 28.9966 1.39616C28.9907 1.39914 28.9887 1.41309 28.9887 1.42205C28.9877 1.42902 28.9917 1.44196 28.9956 1.44196C29.0803 1.45491 29.1649 1.46686 29.2147 1.47284V1.47284ZM10.0247 14.9111C10.0068 14.9131 9.96 14.918 9.91519 14.93C9.90424 14.933 9.8913 14.9579 9.89229 14.9728C9.89229 14.9868 9.90723 15.0096 9.91917 15.0116C9.96493 15.0218 10.0117 15.0268 10.0586 15.0266C10.1133 15.0246 10.1721 15.0286 10.2099 14.9718C10.2358 14.934 10.174 14.9101 10.0247 14.9111ZM13.3261 11.6708C13.3281 11.618 13.2922 11.5791 13.2385 11.5861C13.2255 11.5889 13.2133 11.5946 13.2028 11.6027C13.1923 11.6108 13.1838 11.6211 13.1777 11.6329C13.1608 11.6737 13.2026 11.7285 13.2484 11.7365C13.2823 11.7415 13.3251 11.7066 13.3261 11.6708ZM39.0401 24.2616C39.0053 24.4299 39.0411 24.626 39.077 24.8232C39.1039 24.9726 39.1048 25.1269 39.1188 25.2793C39.1248 25.336 39.1277 25.3938 39.1437 25.4476C39.1576 25.4954 39.2014 25.5232 39.2532 25.5252C39.306 25.5272 39.3508 25.5013 39.3677 25.4555C39.3868 25.4017 39.3975 25.3453 39.3995 25.2882C39.4075 25.0871 39.4145 24.8859 39.4145 24.6848C39.4145 24.4538 39.4364 24.2267 39.5001 24.0047C39.524 23.922 39.5509 23.8384 39.5578 23.7527C39.5738 23.5386 39.6783 23.3843 39.8326 23.2389C40.3483 22.7539 40.8561 22.261 41.3648 21.7691C41.4953 21.6426 41.6167 21.5062 41.7471 21.3797L45.7136 17.5121C45.7614 17.4653 45.8141 17.4235 45.8669 17.3836C45.8748 17.3777 45.9037 17.3896 45.9147 17.4006C45.9265 17.4156 45.9332 17.4342 45.9336 17.4533C45.9425 17.7501 45.9595 18.0448 46.0451 18.3336C46.065 18.4033 46.0501 18.485 46.0431 18.5607C46.0112 18.961 45.9764 19.3613 45.9435 19.7616L45.8271 21.1338C45.8221 21.1816 45.8211 21.2334 45.7992 21.2732C45.7245 21.4056 45.7305 21.548 45.7215 21.6914C45.7106 21.8717 45.6817 22.0519 45.6608 22.2321C45.6563 22.2996 45.6277 22.3633 45.5802 22.4114C45.5498 22.4421 45.5261 22.4787 45.5103 22.519C45.4946 22.5592 45.4872 22.6022 45.4886 22.6454C45.4866 22.7689 45.4886 22.8934 45.4896 23.0168C45.5901 23.1383 45.5154 23.224 45.4348 23.3146C45.3462 23.4142 45.3303 23.5137 45.3711 23.6551C45.4169 23.8085 45.4298 23.9688 45.5294 24.1062C45.5543 24.1401 45.5573 24.1959 45.5543 24.2417C45.5304 24.5852 45.5065 24.9288 45.4736 25.2723C45.4599 25.3472 45.4307 25.4184 45.388 25.4814C45.3313 25.581 45.2586 25.6706 45.2038 25.7712C45.1686 25.8382 45.1444 25.9105 45.1321 25.9853C45.1142 26.1008 45.173 26.1486 45.3014 26.1376C45.3651 26.1327 45.388 26.1486 45.386 26.2054C45.382 26.3109 45.379 26.4165 45.3701 26.521L45.2188 28.2358C45.1969 28.4837 45.1749 28.7307 45.155 28.9786L45.0226 30.6376C45.0007 30.9045 44.9738 31.1714 44.9559 31.4383C44.943 31.6454 44.8663 31.8246 44.7558 31.9979C44.2953 32.7367 43.7864 33.4443 43.2326 34.1159C42.1195 35.4433 41.0632 36.8155 39.9999 38.1828C39.7888 38.4546 39.5728 38.7235 39.3657 38.9993C39.2343 39.1746 39.1148 39.3598 38.9894 39.541C38.9296 39.6277 38.8709 39.7143 38.7693 39.7601C38.7235 39.781 38.6648 39.7521 38.6648 39.7033C38.6648 39.5888 38.6658 39.4733 38.6718 39.3588C38.6817 39.1586 38.6986 38.9585 38.7096 38.7583L38.7823 37.2676L38.8968 35.1187L39.0123 32.9419L39.1267 30.794C39.1656 30.068 39.2024 29.3421 39.2432 28.6162C39.2681 28.1681 39.3 27.72 39.3269 27.2719C39.3289 27.2242 39.3239 27.1766 39.3119 27.1305C39.3038 27.1029 39.2873 27.0785 39.2646 27.0608C39.2419 27.0431 39.2142 27.033 39.1855 27.0319C39.1317 27.0319 39.07 27.0777 39.058 27.1315C39.0501 27.1685 39.0451 27.2061 39.0431 27.244C39.0232 27.6074 39.0063 27.9699 38.9854 28.3334C38.9575 28.8104 38.9256 29.2873 38.8978 29.7643C38.8898 29.9077 38.8898 30.0511 38.8828 30.1945C38.827 31.3984 38.7649 32.602 38.6967 33.8053C38.6698 34.2733 38.6369 34.7403 38.609 35.2083C38.5991 35.3706 38.6001 35.533 38.5921 35.6963C38.5712 36.1543 38.5503 36.6134 38.5244 37.0715C38.4985 37.5395 38.4647 38.0065 38.4378 38.4745C38.4258 38.6747 38.4249 38.8758 38.4139 39.077C38.403 39.2871 38.387 39.4962 38.3721 39.7063C38.3651 39.792 38.3283 39.8268 38.2407 39.8179C38.1173 39.8041 37.9944 39.7859 37.8723 39.7631C36.8309 39.5609 35.7905 39.3548 34.7491 39.1567C34.3838 39.0869 34.0134 39.0401 33.645 38.9814C33.2299 38.9157 32.8157 38.847 32.3996 38.7842C32.0312 38.7275 31.6618 38.6797 31.2935 38.6239C30.7449 38.5423 30.1973 38.4566 29.6497 38.373L28.7139 38.2306C28.3933 38.1828 28.0717 38.137 27.7502 38.0902C27.3907 38.0384 27.0313 37.9846 26.6709 37.9368C26.2359 37.8791 25.7998 37.8183 25.3627 37.7765C25.1656 37.7576 25.0909 37.6211 25.0053 37.4847C24.9755 37.4379 25.0163 37.3423 25.074 37.3124C25.1338 37.2816 25.1975 37.2607 25.2572 37.2318C25.302 37.2138 25.341 37.1839 25.37 37.1452C25.3989 37.1066 25.4168 37.0608 25.4215 37.0127C25.4414 36.8235 25.4782 36.6353 25.3617 36.4571C25.3279 36.4063 25.3279 36.3286 25.3269 36.2629C25.3229 36.0906 25.3229 35.9183 25.3269 35.7461C25.3518 34.6079 25.3777 33.4687 25.4055 32.3305C25.4225 31.6135 25.4424 30.8956 25.4613 30.1786L25.521 27.8255L25.5748 25.7015C25.5788 25.5571 25.5768 25.4147 25.6763 25.2932C25.6981 25.2617 25.7112 25.2249 25.7142 25.1867C25.7331 25.0124 25.7988 24.8531 25.8605 24.6927C25.977 24.39 25.8874 24.161 25.6485 23.9877C25.5259 23.8964 25.4117 23.7944 25.307 23.683C25.1547 23.5247 24.9884 23.3843 24.7694 23.3126C24.6031 23.2588 24.4807 23.1294 24.3502 23.0188C24.3034 22.979 24.2885 22.9222 24.2925 22.8625C24.2994 22.7559 24.2676 22.6564 24.2517 22.5538C24.2298 22.4044 24.2467 22.2491 24.2497 22.0957C24.2507 22.0489 24.2646 22.0011 24.2706 21.9543C24.2965 21.7651 24.2537 21.7163 24.5394 21.7661C24.8878 21.8279 25.2393 21.8637 25.5897 21.9115L26.5833 22.0459L27.7203 22.2003C28.0508 22.2451 28.3824 22.2899 28.7139 22.3367C29.0643 22.3845 29.4138 22.4343 29.7642 22.4811C30.2471 22.5458 30.731 22.6076 31.2138 22.6733C31.7345 22.743 32.2552 22.8157 32.7759 22.8874C33.2677 22.9561 33.7595 23.0248 34.2523 23.0915L35.3037 23.2329C35.7955 23.2996 36.2873 23.3693 36.7801 23.4371C37.1206 23.4839 37.4611 23.5297 37.8026 23.5745C38.1341 23.6183 38.4657 23.6591 38.7972 23.7039C38.845 23.7099 38.8908 23.7238 38.9376 23.7338C39.0043 23.7477 39.0361 23.7955 39.0381 23.8563C39.0431 23.9798 39.0401 24.1042 39.0401 24.2606V24.2616ZM43.8717 24.9327C43.8438 24.9029 43.818 24.8521 43.7821 24.8431C43.7304 24.8312 43.6607 24.8312 43.6178 24.8571C43.3739 25.0069 43.1498 25.1869 42.9508 25.3928C42.9369 25.4067 42.9289 25.4247 42.9199 25.4406C42.9071 25.4663 42.9023 25.4952 42.9062 25.5236C42.9102 25.5521 42.9226 25.5787 42.9418 25.5999C42.9619 25.6205 42.9883 25.6339 43.0167 25.6378C43.0452 25.6418 43.0742 25.6362 43.0991 25.6218C43.131 25.6019 43.1599 25.577 43.1897 25.5521C43.368 25.4087 43.5462 25.2653 43.7234 25.1199C43.7608 25.091 43.7958 25.059 43.8279 25.0243C43.8458 25.0044 43.8528 24.9746 43.8717 24.9327V24.9327ZM34.4096 36.6184C34.4325 36.6154 34.4544 36.6184 34.4684 36.6084C34.4983 36.5875 34.5311 36.5646 34.548 36.5347C34.5759 36.4869 34.551 36.4371 34.5142 36.4083C34.4707 36.3722 34.4196 36.3464 34.3648 36.3326C34.17 36.294 33.9741 36.2608 33.7774 36.233C33.7307 36.2281 33.6836 36.2382 33.643 36.2619C33.6142 36.2768 33.5813 36.3196 33.5823 36.3485C33.5864 36.3943 33.6057 36.4374 33.6371 36.471C33.66 36.4949 33.7048 36.4999 33.7416 36.5068C33.9367 36.5437 34.1329 36.5785 34.328 36.6134C34.3559 36.6184 34.3848 36.6174 34.4096 36.6184V36.6184ZM35.3445 25.817C35.2569 25.817 35.1802 25.815 35.1046 25.817C35.0757 25.8178 35.0481 25.8285 35.0263 25.8474C35.0045 25.8663 34.9899 25.8921 34.9851 25.9206C34.9761 25.9773 35.004 26.0411 35.0558 26.064C35.0986 26.0839 35.1454 26.0988 35.1912 26.1038C35.3614 26.1207 35.5327 26.1376 35.7029 26.1436C35.7684 26.1435 35.8331 26.1299 35.8931 26.1038C35.9578 26.0769 35.9668 25.9753 35.912 25.9345C35.8755 25.905 35.8325 25.8845 35.7866 25.8748C35.6372 25.8509 35.4849 25.8349 35.3445 25.817V25.817ZM29.589 34.9664C29.6985 34.9514 29.7941 34.9454 29.8857 34.9235C29.9624 34.9046 30.0022 34.815 29.9803 34.7403C29.9653 34.6905 29.9176 34.6577 29.8429 34.6626C29.6435 34.6821 29.4422 34.668 29.2475 34.6208C29.2206 34.6128 29.1858 34.6069 29.1639 34.6188C29.1227 34.6386 29.0868 34.6679 29.0594 34.7045C29.0315 34.7493 29.0613 34.8299 29.1052 34.8558C29.129 34.8708 29.1549 34.8857 29.1818 34.8917C29.3212 34.9186 29.4606 34.9425 29.589 34.9664ZM34.8975 38.4865L34.8945 38.5034C34.8288 38.5034 34.7621 38.4994 34.6964 38.5044C34.6681 38.5075 34.6417 38.5203 34.6217 38.5406C34.6018 38.561 34.5895 38.5876 34.5869 38.6159C34.585 38.6444 34.5923 38.6727 34.6077 38.6968C34.6231 38.7208 34.6458 38.7392 34.6725 38.7494C34.7075 38.7629 34.7439 38.7726 34.781 38.7783C34.9303 38.8002 35.0797 38.8211 35.229 38.84C35.2664 38.8441 35.3042 38.8438 35.3415 38.839C35.4042 38.832 35.469 38.7613 35.468 38.7046C35.468 38.6578 35.4212 38.591 35.3684 38.5791C35.2121 38.5462 35.0548 38.5174 34.8975 38.4865V38.4865ZM30.1276 34.2633V34.2593L29.8708 34.2603C29.852 34.2607 29.8333 34.263 29.815 34.2673C29.7873 34.2741 29.7622 34.2888 29.7427 34.3097C29.7232 34.3306 29.7103 34.3567 29.7055 34.3848C29.6965 34.4456 29.7493 34.5143 29.815 34.5302C29.825 34.5322 29.8339 34.5352 29.8439 34.5352C30.0141 34.5322 30.1844 34.5312 30.3546 34.5262C30.3815 34.5252 30.4084 34.5093 30.4343 34.4973C30.4605 34.4858 30.4819 34.4655 30.4948 34.4398C30.5077 34.4142 30.5113 34.3849 30.505 34.3569C30.494 34.3071 30.4641 34.2673 30.4114 34.2643C30.3168 34.2603 30.2222 34.2633 30.1276 34.2633V34.2633ZM40.6371 25.1897C40.6619 25.1817 40.7217 25.1757 40.7685 25.1498C40.8421 25.107 40.9098 25.0532 40.9766 25.0005C41.0515 24.9425 41.1236 24.8811 41.1926 24.8162C41.21 24.7997 41.2218 24.7782 41.2266 24.7547C41.2314 24.7312 41.2289 24.7068 41.2195 24.6848C41.2077 24.6585 41.1878 24.6368 41.1627 24.6228C41.1376 24.6088 41.1086 24.6033 41.0801 24.6071C41.0532 24.6111 41.0194 24.6121 40.9995 24.628C40.8511 24.7475 40.7058 24.867 40.5614 24.9905C40.5425 25.0074 40.5345 25.0393 40.5236 25.0652C40.5017 25.115 40.5484 25.1847 40.6371 25.1897V25.1897ZM30.8554 34.2036C30.8723 34.2036 30.939 34.2066 31.0057 34.2026C31.0426 34.2006 31.0884 34.1966 31.1133 34.1757C31.148 34.1462 31.1718 34.1058 31.181 34.0612C31.1849 34.0333 31.1531 33.9895 31.1252 33.9716C31.0859 33.9453 31.04 33.9304 30.9928 33.9287C30.841 33.9312 30.6892 33.9382 30.5378 33.9497C30.5092 33.9505 30.4815 33.9599 30.4582 33.9765C30.4283 33.9982 30.4058 34.0284 30.3934 34.0632C30.3815 34.111 30.4004 34.1637 30.4472 34.1837C30.5069 34.2096 30.5727 34.2265 30.6364 34.2315C30.6921 34.2364 30.7499 34.2185 30.8554 34.2036V34.2036ZM40.7914 34.4316C40.8332 34.4207 40.8631 34.4187 40.886 34.4037C41.0223 34.3191 41.1578 34.2325 41.2922 34.1438C41.3166 34.1287 41.3346 34.1052 41.3429 34.0777C41.3512 34.0501 41.349 34.0205 41.337 33.9945C41.3091 33.9347 41.2583 33.9078 41.1986 33.9158C41.0192 33.9455 40.8554 34.0358 40.7346 34.1717C40.7157 34.1926 40.6938 34.2165 40.6888 34.2424C40.6819 34.2773 40.6769 34.3231 40.6938 34.349C40.7167 34.3848 40.7605 34.4077 40.7914 34.4316ZM28.1305 25.3998C28.1773 25.4028 28.2251 25.4067 28.2728 25.4077C28.2928 25.4087 28.3117 25.4077 28.3306 25.4057C28.4072 25.3988 28.473 25.344 28.473 25.2892C28.472 25.2225 28.4282 25.1847 28.3764 25.1598C28.3421 25.1426 28.305 25.1318 28.2669 25.1279C28.1623 25.1173 28.0573 25.1107 27.9523 25.108C27.9048 25.1061 27.8575 25.115 27.8139 25.1339C27.7814 25.1523 27.7575 25.1827 27.7472 25.2185C27.7403 25.2416 27.7414 25.2663 27.7502 25.2887C27.7591 25.3111 27.7752 25.3299 27.796 25.342C27.8368 25.3649 27.8836 25.3818 27.9294 25.3898C27.9951 25.3998 28.0628 25.3978 28.1305 25.3998V25.3998ZM32.4434 27.6493L32.4454 27.6303C32.5111 27.6303 32.5788 27.6343 32.6445 27.6293C32.6827 27.6292 32.7201 27.6189 32.753 27.5995C32.7878 27.5726 32.8277 27.5298 32.8287 27.4919C32.8306 27.4541 32.7958 27.4003 32.762 27.3794C32.7123 27.3511 32.6558 27.337 32.5987 27.3386C32.475 27.3443 32.3517 27.3566 32.2293 27.3754C32.1785 27.3834 32.1527 27.4282 32.1417 27.477C32.1307 27.5288 32.1666 27.5995 32.2213 27.6134C32.293 27.6313 32.3687 27.6373 32.4434 27.6493ZM42.0627 28.9856C42.0767 28.9826 42.1135 28.9866 42.1294 28.9697C42.2549 28.8432 42.3793 28.7158 42.4938 28.5803C42.5127 28.5584 42.4908 28.4897 42.4709 28.4509C42.447 28.4051 42.3664 28.3911 42.3186 28.419C42.1539 28.5145 42.0215 28.657 41.9383 28.8283C41.9025 28.897 41.9682 28.9856 42.0627 28.9856V28.9856ZM39.9103 36.939C39.9461 36.9301 39.97 36.9311 39.982 36.9201C40.1184 36.7887 40.2388 36.6453 40.2926 36.459C40.2986 36.4391 40.2806 36.3993 40.2617 36.3864C40.2338 36.3674 40.189 36.3485 40.1622 36.3595C39.9849 36.4312 39.8794 36.5736 39.8117 36.7458C39.8061 36.7637 39.8041 36.7825 39.8058 36.8011C39.8075 36.8197 39.8129 36.8378 39.8217 36.8544C39.8426 36.8912 39.8844 36.9161 39.9103 36.939ZM41.8059 28.889C41.8138 28.7944 41.7481 28.7347 41.6794 28.7456C41.5669 28.7626 41.3041 28.9846 41.2583 29.1011C41.2384 29.1489 41.2663 29.2286 41.319 29.2425C41.3618 29.2545 41.4236 29.2644 41.4524 29.2425C41.5649 29.1579 41.6705 29.0623 41.773 28.9657C41.7979 28.9428 41.8019 28.899 41.8059 28.889V28.889ZM34.329 25.2305C34.2822 25.2365 34.2414 25.2335 34.2085 25.2484C34.1763 25.265 34.1499 25.291 34.1329 25.3231C34.109 25.3689 34.1269 25.4167 34.1627 25.4515C34.1827 25.4715 34.2075 25.4914 34.2334 25.4954C34.3718 25.5212 34.5112 25.5451 34.6516 25.5611C34.6844 25.5651 34.7233 25.5412 34.7561 25.5232C34.8139 25.4934 34.8268 25.3948 34.778 25.352C34.751 25.3261 34.7182 25.307 34.6824 25.2962C34.563 25.2703 34.4415 25.2514 34.329 25.2305V25.2305ZM27.1877 25.9385C27.2145 25.9375 27.2424 25.9365 27.2703 25.9335C27.332 25.9265 27.3808 25.8817 27.3868 25.829C27.3927 25.7762 27.3579 25.7254 27.3002 25.6975C27.1777 25.6378 27.0433 25.6388 26.9129 25.6278C26.8754 25.6259 26.8378 25.6296 26.8014 25.6388C26.7781 25.6433 26.7566 25.6544 26.7394 25.6708C26.7223 25.6873 26.7103 25.7083 26.7048 25.7314C26.6899 25.7841 26.7217 25.8529 26.7705 25.8738C26.8044 25.8877 26.8402 25.9036 26.877 25.9086C26.9796 25.9216 27.0831 25.9285 27.1877 25.9385V25.9385ZM27.3848 31.969C27.4604 31.964 27.4883 31.963 27.5162 31.9601C27.5809 31.9531 27.6257 31.9103 27.6297 31.8545C27.6327 31.8017 27.6088 31.7559 27.562 31.742C27.4005 31.695 27.2375 31.6535 27.0732 31.6175C27.0254 31.6065 26.9846 31.6434 26.9627 31.6892C26.9525 31.7107 26.9493 31.7349 26.9536 31.7583C26.9579 31.7817 26.9694 31.8032 26.9865 31.8196C27.0109 31.8482 27.0416 31.8707 27.0761 31.8854C27.1916 31.9212 27.3101 31.9491 27.3848 31.969V31.969ZM43.2156 30.6994C43.2555 30.6894 43.2913 30.6904 43.3082 30.6735C43.4177 30.559 43.5263 30.4415 43.6288 30.321C43.6627 30.2811 43.6308 30.1985 43.576 30.1796C43.5352 30.1646 43.4785 30.1547 43.4426 30.1726C43.2988 30.2458 43.1884 30.3712 43.134 30.5231C43.121 30.554 43.128 30.6008 43.143 30.6317C43.1569 30.6605 43.1927 30.6795 43.2156 30.6994ZM28.0628 33.0664C28.1564 33.0544 28.2788 33.0415 28.4003 33.0226C28.4371 33.0166 28.4819 33.0026 28.5018 32.9768C28.5293 32.9408 28.5437 32.8965 28.5426 32.8513C28.5407 32.8234 28.5008 32.7796 28.473 32.7746C28.3037 32.7437 28.1335 32.7408 27.9752 32.8264C27.9194 32.8563 27.9025 32.911 27.9104 32.9708C27.9184 33.0265 27.9702 33.0654 28.0628 33.0664V33.0664ZM34.8537 30.5968C34.8248 30.5918 34.7969 30.5859 34.7681 30.5839C34.74 30.5801 34.7117 30.5787 34.6834 30.5799C34.6058 30.5839 34.547 30.6775 34.5889 30.7482C34.6162 30.7963 34.658 30.8346 34.7083 30.8577C34.8168 30.8975 34.9333 30.8926 35.0448 30.8597C35.0866 30.8478 35.1235 30.8109 35.1573 30.779C35.1972 30.7412 35.1812 30.6605 35.1295 30.6347C35.0968 30.6163 35.061 30.6041 35.0239 30.5988C34.9672 30.5928 34.9094 30.5968 34.8537 30.5968V30.5968ZM44.482 21.4285C44.4999 21.4265 44.5238 21.4305 44.5368 21.4216C44.6622 21.3329 44.7727 21.2284 44.8494 21.0949C44.8623 21.0743 44.867 21.0495 44.8626 21.0256C44.8581 21.0016 44.8449 20.9802 44.8255 20.9655C44.7986 20.9456 44.7568 20.9436 44.721 20.9356C44.7115 20.9342 44.7018 20.9356 44.6931 20.9396C44.6217 20.9674 44.5569 21.0097 44.5027 21.0639C44.4486 21.118 44.4062 21.1829 44.3785 21.2543C44.3496 21.328 44.4074 21.4216 44.482 21.4285V21.4285ZM44.1017 25.1209C43.9334 25.1697 43.798 25.2444 43.7194 25.3988C43.7154 25.4067 43.7124 25.4187 43.7164 25.4266C43.7333 25.4675 43.7443 25.5163 43.7742 25.5461C43.7951 25.5681 43.8528 25.58 43.8767 25.5661C43.9992 25.4974 44.1246 25.4276 44.2042 25.3062C44.218 25.2864 44.2244 25.2625 44.2224 25.2385C44.2204 25.2145 44.2101 25.1919 44.1933 25.1747C44.1684 25.1498 44.1316 25.1379 44.1017 25.1209ZM37.257 24.3313C37.3078 24.3263 37.3556 24.3253 37.4024 24.3173C37.4303 24.3118 37.4555 24.2969 37.4739 24.2752C37.4923 24.2536 37.5029 24.2263 37.5039 24.1978C37.5049 24.1441 37.4791 24.1042 37.4313 24.0873C37.3059 24.0428 37.1713 24.0308 37.04 24.0525C36.9633 24.0634 36.9265 24.1749 36.9793 24.2347C37.0092 24.2706 37.048 24.298 37.0918 24.3143C37.1445 24.3303 37.2043 24.3263 37.257 24.3313ZM42.5575 22.9611C42.5356 22.9421 42.5058 22.8983 42.4679 22.8914C42.3057 22.8555 42.1255 23.0606 42.1195 23.1971C42.1155 23.2827 42.23 23.3763 42.2917 23.3305C42.4092 23.2518 42.5015 23.1408 42.5575 23.0109C42.5605 23.0019 42.5575 22.9919 42.5575 22.9611V22.9611ZM34.0861 37.8552C34.0383 37.8611 33.9875 37.8591 33.9457 37.8761C33.9139 37.889 33.875 37.9249 33.872 37.9527C33.868 37.9946 33.881 38.0593 33.9099 38.0792C33.9687 38.1201 34.037 38.1452 34.1083 38.1522C34.1796 38.1592 34.2514 38.1477 34.3171 38.119C34.3629 38.1021 34.4017 38.0583 34.3877 38.0085C34.3758 37.9667 34.3439 37.9149 34.3081 37.901C34.2394 37.8741 34.1608 37.8691 34.0861 37.8552V37.8552ZM43.1061 31.3606C43.1071 31.2799 43.0115 31.2062 42.9448 31.2301C42.8364 31.2671 42.7436 31.3393 42.681 31.4353C42.6719 31.4519 42.6662 31.4702 42.6641 31.489C42.6581 31.5378 42.6601 31.5886 42.7069 31.6145C42.7368 31.6304 42.7806 31.6384 42.8124 31.6295C42.9203 31.5922 43.0141 31.5226 43.0812 31.4303C43.0972 31.4094 43.1001 31.3785 43.1061 31.3606V31.3606ZM28.8413 29.7783C28.7348 29.7753 28.6691 29.8659 28.695 29.9346C28.7477 30.074 28.925 30.1626 29.0663 30.1099C29.1032 30.0969 29.137 30.0471 29.15 30.0073C29.1589 29.9804 29.14 29.9276 29.1161 29.9087C29.0353 29.8455 28.9414 29.8009 28.8413 29.7783V29.7783ZM40.7784 33.7226C40.7356 33.6927 40.7018 33.6509 40.6619 33.6439C40.5385 33.624 40.3513 33.7375 40.3205 33.8511C40.3095 33.8889 40.3284 33.9437 40.3503 33.9805C40.3631 34.0013 40.3835 34.0161 40.4072 34.0219C40.4309 34.0277 40.4559 34.0239 40.4768 34.0114C40.5664 33.9596 40.652 33.8999 40.7326 33.8351C40.7575 33.8142 40.7605 33.7684 40.7784 33.7226ZM36.6786 30.0232C36.7224 30.0163 36.7712 30.0133 36.815 29.9983C36.8638 29.9814 36.8887 29.9376 36.8877 29.8858C36.8877 29.836 36.8697 29.7922 36.819 29.7713C36.721 29.7323 36.6137 29.7226 36.5103 29.7434C36.4576 29.7544 36.4108 29.8151 36.4108 29.8689C36.4108 29.9247 36.4526 29.9864 36.5054 29.9973C36.5611 30.0093 36.6179 30.0153 36.6786 30.0232ZM31.4537 31.0569C31.5115 31.0429 31.5862 31.03 31.6559 31.0041C31.6785 30.9953 31.6971 30.9784 31.708 30.9567C31.7188 30.935 31.7212 30.91 31.7146 30.8866C31.7026 30.8458 31.6728 30.792 31.6379 30.78C31.5798 30.7588 31.5173 30.7524 31.4561 30.7614C31.3949 30.7705 31.337 30.7947 31.2875 30.8318C31.2586 30.8517 31.2497 30.9165 31.2536 30.9583C31.2566 30.9872 31.2954 31.019 31.3263 31.034C31.3582 31.0509 31.399 31.0489 31.4537 31.0569V31.0569ZM31.0316 28.4041C31.0485 28.4021 31.0774 28.4001 31.1053 28.3951C31.1332 28.3894 31.1587 28.3751 31.1781 28.3542C31.1976 28.3333 31.2101 28.3069 31.2138 28.2786C31.2153 28.25 31.2069 28.2217 31.19 28.1985C31.1732 28.1753 31.1489 28.1586 31.1212 28.1511C31.0389 28.1329 30.9554 28.1206 30.8713 28.1143C30.8196 28.1103 30.7837 28.1442 30.7618 28.19C30.7399 28.2378 30.7618 28.3025 30.8076 28.3423C30.8693 28.3961 30.943 28.4031 31.0316 28.4041V28.4041ZM36.8439 33.1092C36.9733 33.1192 37.036 33.0813 37.048 33.0206C37.055 32.9882 37.0502 32.9543 37.0345 32.9251C37.0188 32.8959 36.9932 32.8733 36.9623 32.8612C36.8933 32.8325 36.8221 32.8096 36.7493 32.7925C36.6856 32.7786 36.6109 32.8304 36.596 32.8891C36.582 32.9419 36.6049 33.0086 36.6567 33.0335C36.7324 33.0694 36.811 33.0963 36.8439 33.1092V33.1092ZM27.1877 23.8035C27.2016 23.8005 27.2354 23.8035 27.2544 23.7886C27.2914 23.7636 27.3215 23.7297 27.342 23.69C27.3619 23.6432 27.332 23.6004 27.2902 23.5735C27.2098 23.5239 27.1153 23.5026 27.0214 23.5127C26.9706 23.5157 26.9368 23.5456 26.9169 23.5924C26.8949 23.6422 26.9129 23.686 26.9447 23.7199C27.0055 23.7866 27.0861 23.8075 27.1877 23.8035V23.8035ZM35.4461 24.1222C35.4311 24.0823 35.4291 24.0475 35.4102 24.0325C35.3693 23.9937 35.3204 23.9644 35.2669 23.9467C35.2133 23.9289 35.1566 23.9232 35.1006 23.93C35.0769 23.9325 35.0546 23.9426 35.0371 23.9587C35.0195 23.9748 35.0076 23.9962 35.003 24.0196C34.9976 24.0562 35.0061 24.0935 35.0269 24.1242C35.0666 24.1706 35.1194 24.204 35.1783 24.22C35.2373 24.236 35.2997 24.2338 35.3575 24.2138C35.3943 24.1978 35.4182 24.152 35.4461 24.1222V24.1222ZM31.6509 33.6838H31.5742C31.5185 33.6858 31.4547 33.7316 31.4557 33.7843C31.456 33.8293 31.4714 33.8728 31.4995 33.9078C31.529 33.9391 31.5673 33.9606 31.6093 33.9693C31.6514 33.978 31.6951 33.9736 31.7345 33.9566C31.7684 33.9415 31.7956 33.9146 31.8112 33.8809C31.822 33.8596 31.825 33.8351 31.8195 33.8118C31.814 33.7884 31.8005 33.7678 31.7813 33.7535C31.7385 33.7196 31.6847 33.7007 31.6509 33.6838V33.6838ZM44.4462 25.2693C44.4037 25.2741 44.3643 25.2943 44.3356 25.326C44.3068 25.3577 44.2906 25.3988 44.2899 25.4416C44.2909 25.5043 44.3556 25.571 44.4163 25.573C44.5059 25.576 44.5746 25.4804 44.5627 25.3719C44.5567 25.3161 44.4979 25.2653 44.4462 25.2703V25.2693Z" fill="black"/>
<path d="M28.3106 14.3574V13.3816C28.3116 13.2481 28.3206 13.1137 28.3176 12.9803C28.3076 12.3489 28.3544 11.7186 28.3753 11.0883L28.3853 10.686C28.4002 10.0935 28.4201 9.50096 28.4271 8.90746C28.4331 8.41952 28.4261 7.93158 28.4191 7.44364C28.4152 7.1947 28.3972 6.94674 28.3843 6.69879C28.3783 6.59025 28.3923 6.49366 28.4739 6.40901C28.5814 6.29649 28.5794 6.14015 28.5834 6.00174C28.5966 5.8307 28.6372 5.6629 28.7039 5.50484C28.7181 5.46457 28.7406 5.42772 28.7699 5.39668C28.7992 5.36564 28.8347 5.34108 28.8741 5.3246C28.9349 5.29472 29.0006 5.27481 29.0543 5.23697C29.0991 5.2051 29.1529 5.15731 29.1608 5.1115C29.1778 5.00495 29.2425 4.9701 29.3301 4.9462C29.583 4.87749 29.805 4.74903 30.0191 4.60265C30.1752 4.49207 30.3371 4.3897 30.5039 4.29594C30.6712 4.20632 30.8494 4.13363 31.0236 4.05695C31.0366 4.05054 31.0511 4.04764 31.0656 4.04852C31.0801 4.0494 31.0941 4.05403 31.1062 4.06197C31.1184 4.06991 31.1283 4.08087 31.1349 4.09378C31.1415 4.10669 31.1447 4.12111 31.1441 4.13562C31.1471 4.20238 31.1343 4.26891 31.1068 4.32981C31.0793 4.39071 31.0378 4.44426 30.9858 4.48614C30.942 4.52198 30.8812 4.5409 30.8454 4.58273C30.8096 4.6255 30.7859 4.67707 30.7767 4.7321C30.7736 4.75358 30.7751 4.77548 30.7811 4.79634C30.7871 4.81721 30.7974 4.83656 30.8114 4.85313C30.8254 4.8697 30.8428 4.8831 30.8624 4.89245C30.882 4.9018 30.9033 4.90688 30.925 4.90736C30.9808 4.90836 31.0465 4.90836 31.0903 4.88147C31.2289 4.79686 31.3625 4.70443 31.4905 4.60464C31.5222 4.58199 31.5461 4.55018 31.5591 4.51349C31.5721 4.47681 31.5735 4.43703 31.5632 4.3995C31.5513 4.35071 31.5493 4.30789 31.5961 4.27304C31.7255 4.17346 31.7922 4.04003 31.8051 3.8797C31.806 3.85126 31.8134 3.82339 31.8269 3.79833C31.8404 3.77327 31.8595 3.75169 31.8828 3.73531C31.9277 3.70007 31.9661 3.65728 31.9963 3.60884C32.1406 3.39365 32.3311 3.21335 32.5538 3.08108L33.1163 2.73653C33.3941 2.56824 33.6729 2.40194 33.9506 2.23265C34.1139 2.13307 34.2772 2.0335 34.4375 1.92994C34.5092 1.88314 34.5769 1.83036 34.6456 1.77858C34.6864 1.7487 34.7292 1.73575 34.778 1.76065C34.8208 1.78256 34.8626 1.80746 34.9074 1.82239C35.0159 1.85824 35.0358 1.93193 35.0368 2.04147C35.0428 2.50949 35.0627 2.97751 35.0737 3.44553C35.0766 3.59789 35.0667 3.75025 35.0617 3.9036C35.0597 3.94044 35.0488 3.97828 35.0478 4.01612C35.0298 4.56182 34.9701 5.10453 34.988 5.65022C34.992 5.78466 35.0089 5.9171 35.0139 6.05153C35.0189 6.17501 35.0279 6.30047 35.0169 6.42395C34.9721 6.92185 34.998 7.41875 34.986 7.91565C34.9771 8.26916 34.9612 8.62266 34.9532 8.97717C34.9492 9.18628 34.9442 9.39639 34.9612 9.60451C34.9815 9.8241 34.9561 10.0455 34.8865 10.2548C34.8616 10.3265 34.8447 10.4021 34.8158 10.4728C34.7414 10.6813 34.7252 10.9061 34.769 11.1231C34.8048 11.3591 34.8686 11.5911 34.9084 11.8251C34.9303 11.9566 34.9402 12.092 34.9343 12.2245C34.9074 12.9125 34.8676 13.5996 34.8726 14.2897C34.8745 14.5755 34.8467 14.8633 34.8506 15.1501C34.8566 15.4548 34.8845 15.7605 34.9014 16.0662C34.9064 16.1708 34.9094 16.2753 34.9104 16.3809C34.9122 16.4531 34.8967 16.5247 34.8652 16.5896C34.8336 16.6546 34.787 16.7111 34.7292 16.7543C34.646 16.8175 34.5577 16.8738 34.4654 16.9226C34.3061 17.0092 34.1378 17.0799 33.9835 17.1745C33.0675 17.7292 32.1556 18.2898 31.2406 18.8475C31.0455 18.967 30.8424 19.0755 30.6483 19.198C30.2281 19.4629 29.807 19.7278 29.3958 20.0076C29.1987 20.141 28.9876 20.2555 28.8104 20.4178C28.7905 20.4358 28.7606 20.4457 28.7347 20.4557C28.6491 20.4905 28.5725 20.4557 28.5595 20.369C28.5287 20.1619 28.4948 19.9538 28.4809 19.7447C28.44 19.1522 28.447 18.5597 28.4381 17.9672C28.4331 17.6714 28.3853 17.3767 28.3634 17.0809C28.3415 16.8051 28.3166 16.5293 28.3136 16.2524C28.3056 15.6211 28.3106 14.9888 28.3106 14.3574V14.3574ZM33.5474 4.63252C33.5474 4.70223 33.5464 4.7311 33.5484 4.75899C33.5544 4.84263 33.5932 4.89342 33.6589 4.90736C33.7386 4.92429 33.8132 4.88645 33.8361 4.80081C33.8578 4.72857 33.8659 4.65294 33.86 4.57775C33.8499 4.49306 33.8622 4.40719 33.8959 4.3288C33.9466 4.19636 33.9875 4.05695 34.0153 3.91754C34.0412 3.79207 33.9596 3.68851 33.8401 3.66162C33.7625 3.6437 33.652 3.70544 33.6141 3.80501C33.5614 3.94642 33.4956 4.08981 33.5494 4.24914C33.58 4.34011 33.5835 4.43804 33.5594 4.53095C33.5474 4.57676 33.5484 4.62555 33.5474 4.63252V4.63252ZM29.9902 9.49H29.9942C29.9942 9.55672 29.9902 9.62444 29.9962 9.69016C30.0003 9.73723 30.012 9.78331 30.031 9.82658C30.0499 9.87239 30.0917 9.90923 30.1425 9.89828C30.1843 9.88832 30.2361 9.86442 30.257 9.82957C30.2864 9.78085 30.3022 9.72515 30.3028 9.66825C30.3028 9.48901 30.2739 9.30877 30.3167 9.12853C30.3287 9.07675 30.2739 9.017 30.2221 8.99908C30.1724 8.98215 30.0917 9.00306 30.0688 9.04886C30.0344 9.11628 30.009 9.18793 29.9932 9.26197C29.9802 9.33566 29.9902 9.41332 29.9902 9.49V9.49ZM31.3073 14.5337C31.3163 14.452 31.2705 14.3903 31.2148 14.3883C31.168 14.3873 31.1132 14.3813 31.0754 14.4023C30.944 14.4759 30.8185 14.5606 30.6911 14.6422C30.676 14.6539 30.6635 14.6684 30.6542 14.6851C30.6283 14.7279 30.6134 14.7767 30.6473 14.8175C30.6751 14.8504 30.717 14.8772 30.7578 14.8942C30.7797 14.9041 30.8165 14.8962 30.8394 14.8842C30.978 14.8031 31.1142 14.7177 31.2476 14.6283C31.2815 14.6044 31.2964 14.5526 31.3073 14.5337V14.5337ZM30.1943 17.8467C30.1823 17.765 30.1027 17.7123 30.038 17.7292C29.8637 17.7785 29.7088 17.8799 29.5939 18.02C29.588 18.0269 29.585 18.0369 29.581 18.0449C29.5601 18.1016 29.5581 18.1554 29.5979 18.2052C29.6288 18.244 29.7084 18.2649 29.7532 18.2341C29.8916 18.1365 30.027 18.0349 30.1594 17.9284C30.1833 17.9084 30.1873 17.8626 30.1943 17.8467V17.8467ZM33.5544 13.9731C33.6878 13.9412 33.8391 13.8914 33.9437 13.754C33.9496 13.747 33.9526 13.7381 33.9566 13.7291C33.9934 13.6594 33.9447 13.5658 33.866 13.5568C33.8386 13.5513 33.8102 13.5527 33.7834 13.5608C33.6699 13.6086 33.5584 13.6604 33.4479 13.7142C33.4229 13.728 33.403 13.7495 33.3912 13.7755C33.3794 13.8015 33.3762 13.8306 33.3822 13.8585C33.3951 13.9203 33.4628 13.9721 33.5544 13.9731V13.9731ZM32.058 9.05484C32.0272 9.02796 32.0033 8.98912 31.9734 8.98514C31.9196 8.97617 31.8539 8.97319 31.8081 8.99709C31.7171 9.04877 31.6312 9.10877 31.5513 9.17633C31.5242 9.19706 31.5065 9.2276 31.5018 9.26134C31.4972 9.29508 31.506 9.32929 31.5264 9.35657C31.5692 9.41632 31.6369 9.43921 31.7016 9.41133C31.8253 9.35829 31.9338 9.2751 32.0172 9.16936C32.0391 9.14147 32.0421 9.09965 32.058 9.05484V9.05484ZM31.2615 5.84739C31.2576 5.73984 31.1451 5.68109 31.0724 5.74084C30.9788 5.81851 30.8972 5.91112 30.8165 6.00174C30.7797 6.04356 30.7906 6.12123 30.8314 6.15708C30.8753 6.19691 30.926 6.22081 30.9858 6.19194C31.1071 6.13642 31.2024 6.03616 31.2516 5.91211C31.2615 5.88722 31.2605 5.85735 31.2615 5.84739ZM29.351 6.61216C29.349 6.70277 29.361 6.77547 29.4287 6.82924C29.4924 6.87804 29.6099 6.86111 29.6248 6.7924C29.6474 6.6718 29.664 6.55017 29.6746 6.42794C29.6786 6.38114 29.6158 6.32437 29.5631 6.31143C29.5103 6.29848 29.4665 6.32139 29.4346 6.35724C29.3761 6.42887 29.3463 6.51974 29.351 6.61216V6.61216ZM33.5235 6.79737C33.5414 6.79239 33.5624 6.79239 33.5773 6.78343C33.6872 6.70984 33.7676 6.59981 33.8043 6.47275C33.8142 6.44287 33.7754 6.38313 33.7426 6.36022C33.6848 6.3184 33.6131 6.32836 33.5584 6.37018C33.4758 6.43432 33.4156 6.52281 33.3861 6.62311C33.3612 6.70377 33.4409 6.80335 33.5235 6.79737V6.79737ZM33.6569 10.6043C33.6639 10.5236 33.5813 10.4549 33.5046 10.4778C33.385 10.5128 33.2804 10.5863 33.2069 10.6869C33.185 10.7188 33.189 10.7786 33.2 10.8214C33.2129 10.8722 33.2637 10.8911 33.3135 10.8891C33.4718 10.8811 33.5763 10.7915 33.648 10.6571C33.6559 10.6411 33.6539 10.6202 33.6569 10.6043V10.6043ZM32.8246 10.7337C32.8296 10.6551 32.744 10.5864 32.6673 10.6003C32.5561 10.6223 32.4545 10.6783 32.3766 10.7606C32.3338 10.8044 32.3268 10.8602 32.3537 10.917C32.3687 10.9468 32.394 10.9703 32.4249 10.9831C32.4558 10.9959 32.4902 10.9972 32.522 10.9867C32.6302 10.9526 32.7263 10.8879 32.7987 10.8005C32.8147 10.7796 32.8186 10.7497 32.8246 10.7337ZM32.3438 17.072C32.3627 17.07 32.3866 17.074 32.3985 17.064C32.4811 17.0003 32.5638 16.9375 32.6375 16.8648C32.6584 16.8449 32.6603 16.7932 32.6524 16.7603C32.6394 16.7115 32.5966 16.6846 32.5449 16.6816C32.4783 16.682 32.4131 16.7011 32.3568 16.7367C32.3005 16.7722 32.2553 16.8228 32.2263 16.8828C32.1944 16.9654 32.2611 17.074 32.3438 17.072ZM32.6056 5.24493C32.6056 5.17323 32.5309 5.09357 32.4742 5.09556C32.417 5.09775 32.3611 5.11255 32.3103 5.13889C32.2595 5.16523 32.2152 5.20245 32.1805 5.24792C32.1516 5.28476 32.1566 5.36841 32.1855 5.41023C32.2173 5.45405 32.288 5.47994 32.3388 5.45405C32.4144 5.41621 32.4891 5.37439 32.5578 5.32559C32.5857 5.30568 32.5956 5.26385 32.6056 5.24493V5.24493ZM32.8276 7.33311C32.9779 7.32116 33.1004 7.18673 33.0934 7.06226C33.0885 6.98459 32.9998 6.92285 32.9311 6.94974C32.8408 6.9815 32.7667 7.04773 32.7251 7.13396C32.7032 7.18076 32.6972 7.23054 32.732 7.26739C32.7609 7.29925 32.8047 7.31817 32.8276 7.33311V7.33311ZM29.8279 11.7385C29.7263 11.7405 29.6577 11.7644 29.6069 11.8132C29.5422 11.8729 29.5641 12.0024 29.6427 12.0293C29.7012 12.0513 29.7658 12.0505 29.8237 12.0271C29.8816 12.0036 29.9286 11.9593 29.9553 11.9028C29.9782 11.855 29.9494 11.7773 29.8986 11.7584C29.8727 11.7485 29.8448 11.7435 29.8279 11.7385V11.7385ZM33.0506 15.5863C33.0576 15.5215 33.0048 15.4558 32.9381 15.4458C32.8744 15.4359 32.8097 15.4857 32.7967 15.5554C32.7818 15.6271 32.8226 15.6948 32.8893 15.7057C32.969 15.7207 33.0417 15.6669 33.0506 15.5863V15.5863Z" fill="black"/>
<path d="M39.524 18.8056C39.5238 18.8136 39.5232 18.8216 39.522 18.8295C39.3896 18.8176 39.2572 18.8036 39.1247 18.7937C39.059 18.7897 39.0073 18.8265 38.9933 18.8803C38.986 18.908 38.9876 18.9373 38.9978 18.9641C39.0079 18.9909 39.0262 19.0138 39.0501 19.0297C39.0829 19.0496 39.1168 19.0715 39.1526 19.0785C39.2173 19.0914 39.284 19.0984 39.3507 19.1004C39.6166 19.1044 39.8844 19.0884 40.1482 19.1462C40.1841 19.1551 40.2289 19.1581 40.2597 19.1432C40.3008 19.1236 40.3344 19.091 40.3553 19.0506C40.3662 19.0257 40.3443 18.9769 40.3244 18.949C40.303 18.9231 40.2762 18.9021 40.246 18.8873C40.2158 18.8726 40.1828 18.8644 40.1492 18.8634L39.524 18.8056ZM37.482 19.5475C37.5517 19.5475 37.6383 19.5495 37.724 19.5475C37.7619 19.5459 37.7993 19.5378 37.8345 19.5236C37.8823 19.5047 37.9161 19.4619 37.9081 19.4131C37.8961 19.3687 37.8728 19.3282 37.8404 19.2956C37.8245 19.2776 37.7877 19.2726 37.7608 19.2717C37.5985 19.2682 37.4362 19.2662 37.2739 19.2657C37.2401 19.2639 37.2065 19.2733 37.1786 19.2926C37.1507 19.3119 37.1299 19.3399 37.1196 19.3722C37.0997 19.425 37.0639 19.4419 37.0111 19.4409C36.9056 19.437 36.801 19.432 36.6965 19.434C36.6368 19.434 36.589 19.4838 36.581 19.5415C36.5701 19.6112 36.6089 19.6849 36.6766 19.6959C36.7692 19.7108 36.8648 19.7178 36.9603 19.7188C37.0519 19.7188 37.1276 19.6829 37.1575 19.5853C37.1704 19.5455 37.1893 19.5236 37.2381 19.5296C37.3128 19.5395 37.3894 19.5415 37.482 19.5475ZM38.5005 17.069V17.0769C38.5383 17.0789 38.5762 17.0829 38.615 17.0829C38.6807 17.0829 38.7474 17.0849 38.8141 17.0789C38.8669 17.0749 38.9067 17.0341 38.9097 16.9883C38.9102 16.9656 38.906 16.943 38.8974 16.9219C38.8889 16.9009 38.8761 16.8818 38.8599 16.8658C38.8155 16.8308 38.7619 16.8094 38.7056 16.8041C38.5443 16.7911 38.382 16.7881 38.2208 16.7842C38.1929 16.7832 38.158 16.7842 38.1381 16.7991C38.1033 16.826 38.0585 16.8638 38.0545 16.9007C38.0495 16.9385 38.0794 16.9953 38.1122 17.0182C38.157 17.0481 38.2168 17.061 38.2725 17.068C38.3472 17.0749 38.4249 17.069 38.5005 17.069ZM42.0826 17.8845C42.012 17.8845 41.9831 17.8825 41.9552 17.8845C41.8945 17.8875 41.8377 17.9283 41.8258 17.9771C41.8138 18.0249 41.8467 18.0946 41.8955 18.1215C41.9204 18.1355 41.9462 18.1534 41.9731 18.1564C42.1424 18.1783 42.3116 18.2032 42.4809 18.2141C42.5326 18.2171 42.5884 18.1842 42.6372 18.1584C42.682 18.1345 42.685 18.0389 42.6452 18.005C42.618 17.9792 42.5848 17.9607 42.5486 17.9512C42.3803 17.9243 42.2111 17.9014 42.0826 17.8845ZM29.4875 21.2005C29.4217 21.2085 29.3839 21.2105 29.3471 21.2184C29.3192 21.2232 29.2934 21.2363 29.2731 21.256C29.2528 21.2758 29.239 21.3012 29.2336 21.329C29.2196 21.3887 29.2316 21.4455 29.2774 21.4843C29.3016 21.5066 29.3306 21.5231 29.3622 21.5324C29.3938 21.5417 29.4271 21.5437 29.4596 21.5381C29.5512 21.5231 29.6458 21.5222 29.7383 21.5152C29.7861 21.5112 29.8329 21.5102 29.8797 21.5022C29.9385 21.4923 29.9843 21.4395 29.9833 21.3867C29.9823 21.3329 29.9534 21.2941 29.9046 21.2832C29.7573 21.2503 29.6089 21.2234 29.4875 21.2005ZM37.9828 18.2998C38.0485 18.2918 38.1152 18.2908 38.1789 18.2749C38.2025 18.2694 38.2232 18.2554 38.237 18.2355C38.2508 18.2156 38.2567 18.1913 38.2536 18.1673C38.2486 18.1335 38.2317 18.0887 38.2058 18.0717C38.1572 18.0423 38.1035 18.022 38.0475 18.012C37.936 17.9901 37.8225 17.9771 37.709 17.9622C37.6809 17.959 37.6525 17.959 37.6244 17.9622C37.5706 17.9682 37.5189 18.0219 37.5119 18.0767C37.5088 18.1004 37.5123 18.1246 37.5222 18.1464C37.532 18.1682 37.5478 18.1868 37.5676 18.2002C37.5975 18.2211 37.6353 18.236 37.6712 18.243C37.7737 18.2649 37.8773 18.2808 37.9828 18.2998ZM35.8881 21.5809C35.8114 21.565 35.7487 21.5978 35.7278 21.6576C35.716 21.694 35.7188 21.7337 35.7358 21.7681C35.7527 21.8025 35.7823 21.8289 35.8184 21.8418C35.9817 21.8986 36.1469 21.9264 36.3172 21.8717C36.3779 21.8518 36.4148 21.802 36.4128 21.7462C36.4109 21.7179 36.3997 21.691 36.3807 21.6698C36.3617 21.6487 36.3362 21.6346 36.3082 21.6297C36.1688 21.6108 36.0285 21.5968 35.8881 21.5809ZM35.5187 22.1306C35.6482 22.1366 35.7208 22.1266 35.7816 22.0718C35.8234 22.035 35.8254 21.9573 35.7806 21.9225C35.7656 21.9125 35.7507 21.8946 35.7338 21.8926C35.5785 21.8607 35.4222 21.8289 35.2658 21.805C35.2171 21.798 35.1782 21.8348 35.1573 21.8816C35.1344 21.9334 35.1514 22.0041 35.1942 22.034C35.2161 22.0499 35.24 22.0688 35.2668 22.0748C35.3664 22.0997 35.468 22.1196 35.5187 22.1306ZM35.456 19.0725C35.4022 19.0745 35.3535 19.0725 35.3077 19.0805C35.2589 19.0904 35.2141 19.1233 35.2161 19.1761C35.2181 19.2189 35.233 19.2766 35.2639 19.3005C35.3774 19.3902 35.5456 19.3852 35.6621 19.2926C35.688 19.2727 35.7109 19.2209 35.7029 19.193C35.6889 19.15 35.6585 19.1142 35.6183 19.0934C35.5675 19.0725 35.5068 19.0775 35.456 19.0725ZM30.5876 20.8759C30.5527 20.8819 30.5249 20.8839 30.498 20.8918C30.4512 20.9038 30.3994 20.9735 30.4004 21.0193C30.4004 21.0641 30.4512 21.1388 30.499 21.1447C30.5636 21.1539 30.6291 21.1553 30.6941 21.1487C30.7698 21.1388 30.8315 21.073 30.8255 21.0233C30.8196 20.9705 30.7568 20.9058 30.6931 20.8908C30.6563 20.8819 30.6184 20.8809 30.5876 20.8759ZM38.9167 19.8651C38.9625 19.8562 39.0232 19.8572 39.069 19.8333C39.1028 19.8144 39.1307 19.7636 39.1377 19.7237C39.1427 19.6969 39.1148 19.6481 39.0889 19.6341C38.9874 19.5774 38.8778 19.5584 38.7663 19.6092C38.7176 19.6311 38.7006 19.673 38.6996 19.7218C38.6986 19.7725 38.7225 19.8144 38.7703 19.8313C38.8131 19.8482 38.8609 19.8532 38.9167 19.8651ZM33.6898 20.7444C33.5943 20.7464 33.5405 20.7813 33.5246 20.8321C33.5066 20.8928 33.5425 20.9635 33.6082 20.9954C33.6998 21.0412 33.7904 21.0521 33.877 20.9854C33.9178 20.9555 33.9437 20.9097 33.9258 20.8619C33.9148 20.8291 33.885 20.7912 33.8551 20.7803C33.7934 20.7574 33.7257 20.7514 33.6898 20.7444ZM40.6669 20.5393C40.648 20.5124 40.6311 20.4596 40.5962 20.4407C40.5196 20.3989 40.432 20.4049 40.3493 20.4357C40.3005 20.4547 40.2667 20.5313 40.2856 20.5781C40.3125 20.6478 40.3672 20.6797 40.4379 20.6877C40.5315 20.6976 40.6211 20.6528 40.653 20.5841C40.657 20.5751 40.659 20.5662 40.6669 20.5393ZM39.97 17.1058C39.961 16.9983 39.8963 16.9564 39.8266 16.9246C39.7629 16.8957 39.6942 16.8887 39.6385 16.9375C39.6016 16.9704 39.5817 17.0162 39.6046 17.067C39.6594 17.1865 39.8057 17.2432 39.9152 17.1815C39.9431 17.1655 39.9581 17.1237 39.97 17.1058ZM35.693 17.5579C35.6312 17.5639 35.5735 17.6396 35.5815 17.7013C35.5944 17.7949 35.686 17.8507 35.7985 17.8337C35.8267 17.8291 35.8522 17.8143 35.8702 17.7921C35.8882 17.7699 35.8974 17.7418 35.8961 17.7132C35.8881 17.6226 35.7915 17.5489 35.693 17.5579Z" fill="black"/>
</svg>
