<svg width="57" height="44" viewBox="0 0 57 44" fill="none" xmlns="http://www.w3.org/2000/svg">
<path d="M56.0621 27.8925C56.0422 27.7331 56.0322 27.5738 56.0023 27.4145C55.9326 26.9933 55.6838 26.6846 55.3453 26.4406C55.2756 26.3938 55.2159 26.3599 55.196 26.2673C55.186 26.2235 55.1363 26.1827 55.0964 26.1508C54.977 26.0542 54.8574 25.9626 54.7379 25.867L43.4181 16.8969C40.7101 14.747 38.0021 12.5981 35.2842 10.4491L26.6823 3.63095C25.4676 2.66304 24.243 1.69612 23.0184 0.728209C22.9089 0.641575 22.8094 0.544986 22.7099 0.459348C22.6505 0.41654 22.5871 0.379526 22.5206 0.348814C22.2717 0.244256 22.0228 0.247244 21.764 0.279109C21.6047 0.299025 21.4454 0.321924 21.2861 0.355781C20.5494 0.515108 19.972 0.915421 19.5538 1.53779C19.3824 1.78559 19.2764 2.07258 19.2452 2.37226C19.2452 2.42305 19.2452 2.47882 19.2253 2.52363C19.1755 2.62321 19.2054 2.70586 19.2552 2.7915C19.2851 2.83034 19.3049 2.86718 19.3448 2.87913C19.4344 2.90103 19.4841 2.96078 19.5438 3.01356L24.5617 7.37513C26.6126 9.15063 28.6536 10.9241 30.6945 12.6996L35.5032 16.875C37.2554 18.3966 38.9977 19.9172 40.75 21.4387L46.3053 26.2604C47.3407 27.1625 48.3761 28.0647 49.4215 28.9659C49.4812 29.0237 49.551 29.0805 49.6107 29.1402C49.8795 29.3921 50.1782 29.6102 50.4769 29.8183C50.6661 29.9478 50.8453 30.0792 50.9846 30.2654C51.0444 30.3421 51.124 30.369 51.2036 30.3879C51.2435 30.3969 51.2633 30.375 51.2733 30.3501C51.2932 30.3103 51.3032 30.2684 51.3231 30.2266C51.758 29.0698 52.4934 28.0499 53.4537 27.2721C53.6528 27.1038 53.8818 26.9604 54.1108 26.8399C54.2801 26.7543 54.4592 26.6905 54.6484 26.6527C54.718 26.6378 54.7877 26.6427 54.8674 26.6597C55.0764 26.7065 55.2656 26.811 55.415 26.9664C55.4744 27.0301 55.5247 27.1018 55.5643 27.1795C55.634 27.3089 55.6739 27.4513 55.6938 27.5977C55.7137 27.8297 55.7037 28.0637 55.6738 28.2968C55.6141 28.7379 55.4548 29.1442 55.2756 29.5435C54.957 30.2396 54.5289 30.8689 54.0411 31.4554C53.4327 32.1905 52.7179 32.8305 51.9204 33.3544C51.5123 33.6183 51.0942 33.8393 50.6263 33.9927C50.4072 34.0664 50.1782 34.1142 49.9392 34.1421C49.6505 34.1769 49.3718 34.1162 49.1129 34.0017C49.078 33.9862 49.0472 33.9626 49.0232 33.9329C48.8839 33.7069 48.7943 33.4639 48.8242 33.1881C48.8441 33.0467 48.8839 32.9133 48.9536 32.7938C49.093 32.5598 49.2324 32.3287 49.3818 32.1027C49.4515 31.9862 49.551 31.8826 49.6307 31.7751C49.7501 31.6376 49.8795 31.5152 50.0288 31.4236C50.208 31.309 50.4072 31.2055 50.5964 31.1059C50.6998 31.0489 50.8167 31.0207 50.9348 31.0242C51.0145 31.0292 51.0643 31.0033 51.0941 30.9306C51.1041 30.9037 51.1239 30.8789 51.1339 30.853C51.1538 30.8161 51.1539 30.7842 51.1141 30.7554C51.0444 30.6916 50.9746 30.6269 50.9049 30.5652C50.6262 30.3282 50.3474 30.0942 50.0687 29.8552C47.1815 27.3597 44.2843 24.8633 41.3971 22.3668C39.0973 20.3832 36.8074 18.3986 34.5076 16.414L27.5783 10.4322C25.0595 8.25143 22.5307 6.07064 20.0019 3.88986C19.4941 3.44573 18.9764 3.0036 18.4587 2.55549C18.403 2.50375 18.3368 2.46454 18.2647 2.4405C18.1926 2.41645 18.1161 2.40812 18.0405 2.41608C16.6865 2.49375 15.661 3.24458 15.0637 3.98844C14.8247 4.28021 14.6356 4.59986 14.5062 4.95237C14.3569 5.3467 14.2871 5.75199 14.327 6.17719C14.3469 6.32656 14.3767 6.46398 14.4265 6.60041L14.5759 6.99076C14.6854 7.08436 14.795 7.17996 14.9045 7.27057C18.9366 10.4561 22.9687 13.6397 26.9908 16.8242C27.18 16.9736 27.3792 17.123 27.5684 17.2723C27.6181 17.3112 27.658 17.3281 27.7277 17.2903C27.7614 17.2689 27.7996 17.2556 27.8394 17.2514C27.8791 17.2473 27.9192 17.2524 27.9566 17.2664C28.0123 17.2808 28.0709 17.2795 28.1258 17.2624C28.2154 17.2385 28.2951 17.2484 28.3847 17.2544C28.5241 17.2624 28.6635 17.2733 28.8029 17.2634C29.1513 17.2385 29.4899 17.2435 29.8284 17.3012C29.8714 17.3063 29.915 17.3053 29.9578 17.2982C30.0972 17.2813 30.2365 17.2514 30.3759 17.2434C30.8438 17.2176 31.2819 17.3191 31.7001 17.5412C32.0457 17.7183 32.3533 17.9612 32.606 18.2562C32.7155 18.3787 32.8251 18.5001 32.9246 18.6216C32.9645 18.6595 32.9943 18.7003 33.0341 18.7312C33.2233 18.8706 33.4024 19.0199 33.6016 19.1404C34.1989 19.5019 34.7366 19.9421 35.2343 20.43C36.001 21.1868 36.668 22.0332 37.2654 22.9294C37.355 23.0629 37.4546 23.1913 37.5541 23.3148C37.7632 23.5637 37.9723 23.8077 38.1714 24.0547C38.4701 24.4032 38.8086 24.7069 39.177 24.9648C39.3263 25.0644 39.4756 25.163 39.615 25.2586C39.9336 25.4637 40.2223 25.6997 40.4911 25.9606C40.7599 26.2225 40.9689 26.5312 41.178 26.8409C41.2576 26.9564 41.3274 27.0739 41.4071 27.1914C41.865 27.9044 42.3828 28.5756 42.9104 29.2408C42.9303 29.2746 42.9701 29.3075 42.99 29.3443C43.1095 29.5415 43.2688 29.6919 43.4579 29.8333C45.1604 31.1776 46.8629 32.5259 48.5653 33.8732L48.6848 33.9688C48.7346 34.0037 48.7744 34.0415 48.7943 34.1042C48.8042 34.1919 48.8739 34.2397 48.9436 34.2825C49.1726 34.4159 49.4115 34.4717 49.6704 34.4856C49.9591 34.5015 50.2478 34.4518 50.5166 34.3791C50.8352 34.2954 51.1439 34.1719 51.4426 34.0236C52.0067 33.7325 52.5346 33.3763 53.0156 32.9621C53.8288 32.278 54.5308 31.4718 55.0964 30.5721C55.4549 30.0055 55.7535 29.4091 55.9227 28.7598C56.0123 28.4222 56.0422 28.1783 56.0621 27.8935V27.8925Z" fill="black"/>
<path d="M15.7209 36.5569H16.5274C16.5971 36.5569 16.6667 36.5489 16.7165 36.5927C16.8061 36.6575 16.8957 36.6505 16.9953 36.6435C17.1745 36.6306 17.3536 36.6117 17.5428 36.6017C17.7618 36.5897 17.9809 36.5808 18.1999 36.5778C18.3592 36.5748 18.5285 36.5818 18.6977 36.5858C18.8072 36.5888 18.9267 36.6176 19.0262 36.5917C19.2552 36.535 19.4942 36.5648 19.7232 36.522C19.8128 36.5051 19.9124 36.4942 20.002 36.4842C20.1912 36.4633 20.3703 36.4334 20.5495 36.4284C21.1469 36.4115 21.7542 36.4015 22.3516 36.3936C22.491 36.3916 22.6303 36.4065 22.7697 36.4115C23.2177 36.4264 23.6558 36.4304 24.1038 36.3557C24.4921 36.291 24.8803 36.2342 25.2786 36.2402C25.4777 36.2432 25.6768 36.2163 25.8659 36.1984C26.0053 36.1865 26.0751 36.0889 26.0551 35.9554C26.0551 35.9265 26.0352 35.8997 26.0252 35.8728C26.0053 35.826 26.0253 35.7871 26.0551 35.7513C26.085 35.7125 26.1248 35.6766 26.1547 35.6368C26.2144 35.5691 26.2642 35.5033 26.314 35.4296C26.4733 35.1926 26.523 34.9477 26.3637 34.6878C26.3438 34.642 26.3538 34.6041 26.3936 34.5733C26.4708 34.5051 26.5695 34.4663 26.6724 34.4637C26.7321 34.4637 26.7919 34.4538 26.8417 34.4199C26.9612 34.3373 27.0906 34.3651 27.22 34.3841C27.2499 34.388 27.2697 34.4289 27.2498 34.4508C27.2299 34.4807 27.2001 34.5056 27.1802 34.5364C27.1702 34.5673 27.1503 34.6031 27.1403 34.638C27.1303 34.7167 27.2001 34.7834 27.2797 34.7635C27.2999 34.757 27.3199 34.7497 27.3395 34.7416C27.4888 34.6808 27.6381 34.6151 27.7875 34.5613C27.9069 34.5175 27.9865 34.4518 27.9965 34.3144C28.0065 34.2367 28.0463 34.2128 28.116 34.2337C28.2454 34.2656 28.365 34.2964 28.4745 34.3482C28.7234 34.4647 28.9821 34.5265 29.2609 34.5474C29.5795 34.5723 29.8882 34.638 30.2068 34.7177C30.5055 34.7943 30.8041 34.8601 31.1127 34.8999C31.2023 34.9118 31.2919 34.9387 31.3815 34.9626C31.4413 34.9786 31.4712 35.0094 31.4612 35.0512C31.4612 35.12 31.4313 35.1747 31.3716 35.1867C31.3218 35.1996 31.2621 35.2046 31.2024 35.2096C31.1128 35.2156 31.0232 35.2225 30.9435 35.2215C30.899 35.2226 30.8548 35.2138 30.8141 35.1956C30.7344 35.1578 30.6448 35.1638 30.5552 35.1688C30.4557 35.1747 30.3959 35.2544 30.4158 35.352C30.4158 35.3988 30.4456 35.4356 30.4855 35.4545C30.5266 35.4731 30.5702 35.4855 30.6149 35.4914C30.8439 35.5223 31.0729 35.5511 31.3019 35.5103C31.4612 35.4844 31.6105 35.4675 31.7599 35.4516C31.9191 35.4366 32.0486 35.4048 32.1083 35.2325C32.1182 35.1767 32.1879 35.1538 32.2278 35.1688C32.3472 35.2046 32.4469 35.2554 32.5564 35.3012V35.338C32.5464 35.3511 32.5324 35.3606 32.5165 35.3649C32.2676 35.4645 32.0187 35.5701 31.7499 35.6278C31.6503 35.6497 31.5707 35.6806 31.5409 35.7881C31.5209 35.8449 31.4712 35.8608 31.4214 35.8598C31.3616 35.8588 31.3018 35.8568 31.2421 35.8539C31.1768 35.8468 31.1108 35.8544 31.0488 35.8761C30.9868 35.8978 30.9304 35.9331 30.8837 35.9793C30.8337 36.0324 30.7704 36.0711 30.7003 36.0914C30.6303 36.1117 30.5561 36.1129 30.4855 36.0948C30.356 36.0709 30.2168 36.0839 30.0873 36.0889C30.0225 36.0944 29.9588 36.1092 29.8981 36.1327C29.8384 36.1536 29.8085 36.2044 29.7986 36.2651C29.7687 36.3766 29.8185 36.4513 29.938 36.4663C29.9977 36.4742 30.0574 36.4752 30.1171 36.4772C30.2167 36.4822 30.3163 36.4852 30.4158 36.4872C30.4855 36.4892 30.5353 36.5081 30.5652 36.5629C30.6349 36.6565 30.7245 36.7162 30.8241 36.761C30.9336 36.8068 31.0331 36.8198 31.1426 36.7839C31.3118 36.7311 31.4811 36.6943 31.6504 36.6475C31.72 36.6286 31.7797 36.6276 31.8494 36.6465C31.9039 36.6657 31.961 36.6764 32.0187 36.6784C32.2577 36.6774 32.4866 36.7182 32.7156 36.755C32.7813 36.7668 32.8481 36.7718 32.9148 36.77C32.9588 36.7674 33 36.7478 33.0297 36.7152C33.0595 36.6827 33.0755 36.6398 33.0741 36.5957C33.0741 36.525 33.0342 36.4653 32.9645 36.4473C32.9346 36.4384 32.8948 36.4364 32.855 36.4304C32.6957 36.4025 32.626 36.3229 32.6061 36.1546C32.5961 36.1187 32.5961 36.0819 32.5861 36.047C32.5762 36.0052 32.5365 35.9554 32.5464 35.9265C32.5763 35.8758 32.636 35.8947 32.6858 35.8927C32.7356 35.8917 32.7952 35.8967 32.845 35.8927C32.9346 35.8847 32.9944 35.9176 33.0243 36.0132C33.0442 36.0829 33.1039 36.1128 33.1736 36.1128C33.2135 36.1138 33.2632 36.1138 33.3031 36.1118C33.4325 36.1068 33.552 36.1197 33.6714 36.1655C33.771 36.2024 33.8705 36.2094 33.97 36.1984C34.1293 36.1815 34.2986 36.1745 34.4579 36.1556C34.5873 36.1377 34.7367 36.1237 34.8661 36.0819C35.0851 36.0122 35.3042 35.9226 35.5232 35.8409C35.6427 35.7961 35.7721 35.7503 35.8916 35.7075C36.0708 35.6467 36.25 35.6218 36.4292 35.6537C36.6084 35.6836 36.7776 35.6477 36.9568 35.6218C37.0663 35.6059 37.1659 35.576 37.2755 35.5581C37.3863 35.5474 37.4909 35.5017 37.5741 35.4277C37.6139 35.3898 37.6737 35.3819 37.7334 35.3629C37.7931 35.342 37.823 35.2982 37.8429 35.2365C37.8628 35.1588 37.813 35.0791 37.7334 35.0771C37.5841 35.0751 37.4348 35.0702 37.2954 35.0891C37.0465 35.1219 36.7976 35.0931 36.5587 35.0502C36.5006 35.0419 36.4437 35.0265 36.3894 35.0044C36.2599 34.9537 36.1305 34.8979 36.0011 34.8421C35.9911 34.8381 35.9811 34.8172 35.9811 34.8093C35.9911 34.7983 36.0011 34.7864 36.021 34.7844C36.0708 34.7784 36.1306 34.7724 36.1903 34.7714C36.4492 34.7635 36.7079 34.7585 36.9568 34.7485C37.1957 34.7396 37.4248 34.7286 37.6638 34.7137C37.7434 34.7087 37.813 34.7187 37.8529 34.8113C37.8728 34.8431 37.9225 34.869 37.9624 34.873C38.0619 34.884 38.1515 34.9188 38.2412 34.9457C38.3108 34.9666 38.3805 34.9726 38.4502 34.9825C38.5896 35.0005 38.729 35.0074 38.8584 35.0632C38.8982 35.0791 38.9082 35.1269 38.8883 35.1538C38.8784 35.1588 38.8783 35.1648 38.8684 35.1697C38.8684 35.1757 38.8584 35.1817 38.8584 35.1847C38.7741 35.2376 38.7045 35.3108 38.6558 35.3976C38.6071 35.4844 38.5809 35.5821 38.5796 35.6816C38.5796 35.7324 38.5398 35.7583 38.49 35.7662C38.2113 35.815 37.9326 35.8618 37.6538 35.9116C37.4646 35.9435 37.2954 35.9913 37.146 36.1177C37.1162 36.1496 37.0564 36.1665 37.0066 36.1785C36.927 36.1984 36.8374 36.2094 36.7478 36.2253C36.698 36.2362 36.6382 36.2452 36.5785 36.2631C36.5465 36.272 36.5189 36.2921 36.5006 36.3197C36.4823 36.3473 36.4746 36.3806 36.4789 36.4135C36.4889 36.4782 36.5387 36.527 36.6183 36.527C36.688 36.527 36.7477 36.521 36.8174 36.5101C36.9966 36.4802 37.1759 36.4483 37.3551 36.4115C37.4174 36.3952 37.4833 36.3976 37.5443 36.4185C37.6837 36.4683 37.813 36.4613 37.9624 36.4364C38.1017 36.4115 38.2511 36.4005 38.3905 36.3856C38.4502 36.3786 38.51 36.3916 38.5399 36.4583C38.5498 36.5001 38.5896 36.4951 38.6294 36.4872C38.8286 36.4444 39.0376 36.4374 39.2467 36.4384C39.3761 36.4394 39.5056 36.4364 39.635 36.4603C39.9536 36.519 40.1925 36.3926 40.4016 36.1805C40.4614 36.1177 40.521 36.049 40.5708 35.9793C40.6704 35.8539 40.7898 35.7921 40.9491 35.8041C41.2777 35.828 41.5366 35.6995 41.7656 35.4934C41.7956 35.4721 41.8294 35.4565 41.8651 35.4476C41.9945 35.4217 42.114 35.3809 42.2434 35.3291C42.3729 35.2743 42.5023 35.2454 42.6417 35.2404C42.8408 35.2345 43.0399 35.1986 43.2291 35.1419C43.4083 35.0871 43.5974 35.0652 43.7865 35.0672C44.0056 35.0702 44.2146 35.0293 44.4138 34.9716C44.6228 34.9118 44.8419 34.8571 45.0509 34.8003C45.2501 34.7455 45.4293 34.6539 45.5986 34.5294C45.7977 34.3831 45.8375 34.1899 45.7976 33.9648C45.7578 33.8135 45.6882 33.6761 45.5986 33.5526C45.4592 33.3803 45.3297 33.206 45.1804 33.0377C44.8419 32.6215 44.5034 32.1953 44.1948 31.7532C44.0653 31.568 43.9061 31.4027 43.7568 31.2294C43.6174 31.0561 43.458 30.8888 43.3186 30.7126C43.0299 30.3521 42.7512 29.9836 42.4624 29.6282C42.2633 29.3912 42.0543 29.1681 41.8452 28.944C41.5266 28.6035 41.1981 28.2669 40.8695 27.9283C40.77 27.8218 40.6903 27.7033 40.6107 27.5798C40.4613 27.3548 40.2921 27.1387 40.1328 26.9196C40.0233 26.7652 39.9038 26.6159 39.7943 26.4595C39.6363 26.2236 39.4451 26.0117 39.2268 25.8302C38.9878 25.636 38.739 25.4448 38.5 25.2546C38.2013 25.0186 37.9326 24.7567 37.6638 24.4779C37.4951 24.2957 37.345 24.0973 37.2157 23.8854C37.0265 23.5827 36.8174 23.2919 36.5984 23.0091C36.4391 22.8119 36.2998 22.6108 36.1504 22.4116C35.5929 21.6449 34.9457 20.9598 34.2189 20.3503C34.0397 20.201 33.8606 20.0416 33.6914 19.8863C33.542 19.7499 33.3826 19.6135 33.2333 19.473C33.1537 19.3934 33.0641 19.3087 32.9944 19.2171C32.855 19.0369 32.7156 18.8656 32.5265 18.7332C32.407 18.6525 32.3273 18.544 32.2377 18.4314C32.073 18.1952 31.8405 18.0146 31.5707 17.9136C31.3716 17.8399 31.1526 17.7941 30.9336 17.7623C30.6239 17.7144 30.311 17.6898 29.9976 17.6886C29.8284 17.6886 29.709 17.7762 29.5696 17.8439C29.47 17.9784 29.3704 18.1148 29.3604 18.292C29.3556 18.3023 29.3532 18.3135 29.3532 18.3249C29.3532 18.3363 29.3556 18.3475 29.3604 18.3578C29.3903 18.5898 29.261 18.7272 29.0818 18.8357C28.9723 18.8995 28.8627 18.9552 28.7532 19.013C28.7133 19.0329 28.6735 19.0548 28.6337 19.0677C28.5242 19.1026 28.4147 18.998 28.4346 18.8786C28.4524 18.815 28.491 18.7593 28.5441 18.7202C28.6337 18.6654 28.7134 18.6037 28.8129 18.5649C28.9424 18.5091 29.0419 18.4155 29.1116 18.293C29.1315 18.2552 29.1614 18.2203 29.1813 18.1825C29.2112 18.1357 29.2012 18.1058 29.1514 18.0779C28.9963 17.9963 28.8276 17.9437 28.6536 17.9226C28.5278 17.9118 28.4015 17.9084 28.2753 17.9126C28.0961 17.9166 28.0066 17.9963 27.9767 18.1715V18.1915C27.9866 18.3637 27.897 18.4802 27.7775 18.5868C27.668 18.6794 27.5783 18.7849 27.4887 18.8925C27.3593 19.0518 27.1802 19.1554 26.9811 19.2211C26.3539 19.4282 25.8062 19.7608 25.2885 20.1631C25.189 20.2388 25.0993 20.3284 25.0097 20.4141C24.9415 20.4718 24.8986 20.5541 24.8903 20.6431C24.8903 20.7496 24.8305 20.8383 24.7808 20.9249C24.5717 21.2446 24.3726 21.5652 24.1635 21.8819C24.0142 22.095 23.8649 22.3041 23.7155 22.5092C23.606 22.6576 23.4865 22.796 23.3769 22.9374C23.357 22.9673 23.367 22.9902 23.3969 23.0031C23.4566 23.026 23.5064 23.0181 23.5662 22.9922C23.6956 22.9324 23.825 22.8797 23.9445 22.8209C24.0839 22.7592 24.2233 22.7173 24.3627 22.6934C24.4153 22.6846 24.4686 22.6816 24.5219 22.6845C24.6015 22.6914 24.6613 22.7492 24.6812 22.8338C24.6925 22.8734 24.6897 22.9156 24.6733 22.9534C24.657 22.9912 24.6282 23.0221 24.5917 23.041C24.5484 23.0648 24.5012 23.0807 24.4523 23.0878C24.1237 23.1435 23.8449 23.2949 23.5662 23.4582C23.5562 23.4652 23.5363 23.4741 23.5263 23.4831C23.3073 23.6723 23.0386 23.7599 22.7498 23.7938C22.5597 23.8165 22.3704 23.8457 22.1823 23.8814C22.0429 23.9083 21.8936 23.9362 21.7543 23.991C21.2863 24.1851 20.8183 24.3992 20.3902 24.688C20.3504 24.7159 20.3105 24.7448 20.2707 24.7776C20.2398 24.7994 20.2129 24.8264 20.1911 24.8573C20.1494 24.9818 20.0647 25.0874 19.9522 25.155C19.9223 25.173 19.9025 25.2238 19.8825 25.2616C19.7332 25.5275 19.554 25.7645 19.3648 25.9965C19.2155 26.1707 19.086 26.357 18.9566 26.5442C18.8172 26.7523 18.7176 26.9793 18.6479 27.2213C18.5782 27.4742 18.4986 27.7262 18.4289 27.9801C18.3791 28.1723 18.2995 28.3525 18.1999 28.5198C18.0705 28.718 17.9411 28.9142 17.8017 29.1024C17.6125 29.3633 17.4632 29.6491 17.3736 29.9597C17.3039 30.1689 17.2243 30.374 17.1347 30.5751C17.0849 30.6936 17.0152 30.8062 16.9355 30.9117C16.7762 31.1248 16.597 31.318 16.4078 31.4992C16.2884 31.6138 16.1789 31.7412 16.0594 31.8657C15.9399 32.0011 15.8205 32.1385 15.701 32.277C15.6313 32.3606 15.5517 32.4433 15.492 32.5349C15.4024 32.6773 15.2928 32.8017 15.1633 32.9103C15.004 33.0417 14.8647 33.1901 14.7453 33.3614C14.6955 33.4391 14.6457 33.5237 14.6158 33.6123C14.576 33.7338 14.5162 33.8414 14.4465 33.9429C14.3919 34.0117 14.3513 34.0905 14.3271 34.1749C14.3176 34.2105 14.3002 34.2435 14.276 34.2713C14.2519 34.2991 14.2216 34.321 14.1877 34.3353C14.1279 34.3681 14.0583 34.399 13.9886 34.4279C13.8592 34.4856 13.7496 34.5593 13.6899 34.7027C13.67 34.7714 13.6202 34.8053 13.5505 34.8192C13.4808 34.8342 13.4012 34.8501 13.3315 34.87C13.212 34.9029 13.1224 34.9656 13.0826 35.0901C13.0527 35.1797 12.9931 35.2175 12.9134 35.2424C12.6645 35.3181 12.4156 35.3848 12.1667 35.4237C12.0672 35.4396 11.9675 35.4545 11.858 35.4745C11.7386 35.4994 11.6191 35.5422 11.5196 35.6069C11.4203 35.6591 11.3427 35.7449 11.3006 35.8489C11.2508 35.9674 11.2806 36.067 11.3901 36.1337C11.4275 36.1571 11.4676 36.1758 11.5096 36.1894C11.6788 36.2342 11.8481 36.297 12.0174 36.3159C12.3957 36.3557 12.774 36.4035 13.1623 36.3966C13.2121 36.3956 13.2717 36.3956 13.3315 36.3896C13.3646 36.3873 13.3968 36.3779 13.426 36.3621C13.4552 36.3463 13.4807 36.3244 13.5008 36.298C13.5218 36.2751 13.5375 36.248 13.547 36.2185C13.5564 36.189 13.5594 36.1577 13.5556 36.127C13.5518 36.0962 13.5414 36.0666 13.5251 36.0402C13.5087 36.0139 13.4868 35.9914 13.4609 35.9743C13.4012 35.9365 13.3415 35.9086 13.2917 35.8778C13.242 35.8529 13.1922 35.8309 13.1523 35.8041C13.1424 35.7991 13.1424 35.7772 13.1424 35.7662C13.1523 35.7553 13.1622 35.7433 13.1722 35.7413C13.202 35.7373 13.232 35.7344 13.2618 35.7373C13.7596 35.7931 14.2574 35.7413 14.7453 35.6577C14.9046 35.6308 15.0638 35.5979 15.2231 35.5641C15.3625 35.5322 15.5019 35.4735 15.5716 35.3291C15.6014 35.2713 15.6612 35.2524 15.7209 35.2494C15.7807 35.2464 15.8503 35.2434 15.92 35.2424C16.2784 35.2385 16.6469 35.2365 17.0152 35.2335H17.1048C17.2541 35.2375 17.3935 35.2016 17.4931 35.0712C17.523 35.0283 17.5628 35.0283 17.6026 35.0552C17.6325 35.0702 17.6523 35.0861 17.6722 35.105C17.732 35.1518 17.7619 35.2076 17.7221 35.2793C17.6922 35.341 17.6822 35.4038 17.7221 35.4665C17.742 35.4954 17.7719 35.5292 17.7719 35.5561C17.7619 35.6079 17.7121 35.6079 17.6623 35.6129C17.3935 35.6527 17.1147 35.6866 16.836 35.6895C16.4178 35.6935 16.0096 35.7563 15.6015 35.8658C15.3725 35.9285 15.1434 36.0112 14.9144 36.0879C14.8583 36.1065 14.8048 36.1323 14.7552 36.1645C14.7202 36.1883 14.6897 36.2184 14.6655 36.2532C14.566 36.3916 14.6257 36.536 14.795 36.5529C14.8647 36.5599 14.9444 36.5569 15.0141 36.5569H15.7209V36.5569ZM33.9004 30.4796C34.0398 30.4905 34.1891 30.4885 34.3384 30.5154C34.6271 30.5702 34.9258 30.603 35.2245 30.6299C35.2842 30.6349 35.344 30.6419 35.3938 30.6568C35.5033 30.6857 35.5531 30.7723 35.5431 30.8719C35.5232 30.9765 35.4535 31.0362 35.344 31.0372C35.3207 31.0372 35.2975 31.0362 35.2743 31.0342C34.9955 31.0014 34.7069 30.9804 34.4281 30.9336C34.0299 30.8669 33.6315 30.8679 33.2333 30.9715C32.9147 31.0551 32.5862 31.08 32.2576 31.077C32.2075 31.0767 32.1574 31.0713 32.1083 31.0611C31.9988 31.0362 31.959 30.9416 31.9888 30.84C32.0187 30.7484 32.0984 30.6976 32.188 30.6827C32.2577 30.6697 32.3274 30.6707 32.407 30.6688C32.6758 30.6598 32.9545 30.6389 33.2233 30.5682C33.4424 30.5094 33.6714 30.4786 33.9004 30.4796V30.4796ZM26.6724 24.1961C26.6824 24.1672 26.6924 24.1234 26.7123 24.0846C26.7521 23.9999 26.8019 23.9153 26.8517 23.8356C27.001 23.5966 27.1603 23.3576 27.3196 23.1246C27.7178 22.568 28.0961 22.0053 28.4346 21.4158C28.4564 21.377 28.4831 21.3411 28.5142 21.3093C28.5939 21.2177 28.7333 21.2535 28.7631 21.376C28.783 21.4278 28.783 21.4776 28.7631 21.5254C28.7233 21.5921 28.6935 21.6578 28.6636 21.7205C28.4246 22.1219 28.1757 22.5212 27.9069 22.9055C27.668 23.2541 27.439 23.6076 27.2001 23.9581C27.1404 24.0427 27.0806 24.1284 27.0208 24.207C26.981 24.2568 26.9213 24.2967 26.8715 24.3345C26.8317 24.3614 26.7918 24.3614 26.742 24.3385C26.6923 24.3106 26.6824 24.2648 26.6724 24.1961V24.1961ZM23.5861 35.7752V35.7931C23.5164 35.7931 23.4467 35.7951 23.3671 35.7921C23.3571 35.7911 23.3173 35.7782 23.3173 35.7652C23.3073 35.7413 23.3173 35.7035 23.3272 35.6876C23.4069 35.6069 23.4865 35.5352 23.5562 35.4535C23.6757 35.3171 23.8349 35.2514 24.0141 35.2036C24.1635 35.1598 24.3229 35.1449 24.4822 35.1458C24.5419 35.1468 24.6016 35.1538 24.6513 35.1936C24.721 35.2524 24.8106 35.2663 24.8903 35.2793C24.9799 35.2912 25.0695 35.3042 25.1491 35.3221C25.2387 35.341 25.2586 35.3709 25.2686 35.4555C25.2785 35.5422 25.2587 35.58 25.1691 35.5949C25.0695 35.6149 24.96 35.6318 24.8505 35.6497C24.7012 35.6736 24.5518 35.7055 24.3925 35.7194C24.1237 35.7443 23.8549 35.7573 23.5861 35.7752V35.7752ZM25.4777 25.1331C25.6271 25.1391 25.6967 25.2646 25.6469 25.3791C25.627 25.4518 25.5673 25.4986 25.5075 25.5444C25.2288 25.7704 24.9201 25.9527 24.6214 26.1469C24.5666 26.1811 24.5059 26.2047 24.4423 26.2166C24.3328 26.2365 24.2531 26.1429 24.283 26.0403C24.3029 25.9925 24.3229 25.9427 24.3527 25.9069C24.4125 25.8431 24.4821 25.7834 24.5518 25.7336C24.8106 25.5494 25.0795 25.3691 25.3483 25.1909C25.3981 25.159 25.4479 25.1441 25.4777 25.1331V25.1331ZM17.1744 34.866C17.1446 34.862 17.1148 34.863 17.0948 34.8561C17.065 34.8441 17.035 34.8212 17.035 34.7784C17.035 34.7455 17.0749 34.7206 17.1148 34.7256L17.1844 34.7386C17.2242 34.7535 17.2741 34.8083 17.2542 34.8262C17.2343 34.8471 17.1944 34.8571 17.1744 34.866ZM18.6082 19.5378L21.8638 19.4661C22.9888 19.4402 24.1137 19.4103 25.2487 19.3864C25.3788 19.3846 25.506 19.3478 25.617 19.2799C26.1945 18.9234 26.7719 18.5699 27.3593 18.2154C27.3792 18.2004 27.4092 18.1855 27.4291 18.1656C27.439 18.1526 27.439 18.1237 27.4291 18.1098C27.4191 18.0849 27.3991 18.066 27.3792 18.0451C27.1303 17.8041 26.8815 17.5641 26.6425 17.3221C26.2343 16.9198 25.7963 16.5504 25.3583 16.1919C24.97 15.8792 24.5817 15.5665 24.2034 15.2449C23.7753 14.8794 23.3073 14.5678 22.8294 14.266C22.7398 14.2103 22.6502 14.1565 22.5706 14.1037C22.3814 13.9942 22.2122 13.8717 22.0628 13.7223C22.0021 13.6586 21.9212 13.6178 21.8339 13.6068C21.7821 13.6034 21.733 13.5827 21.6945 13.5481C21.6148 13.4813 21.5352 13.4764 21.4456 13.4784C21.0672 13.4893 20.6889 13.5013 20.3106 13.5092C20.0318 13.5152 19.7631 13.5162 19.4942 13.5212L16.8459 13.573L14.9742 13.6108C14.2176 13.6267 13.4509 13.6407 12.6943 13.6576C12.6207 13.6604 12.5474 13.6694 12.4753 13.6845C12.4318 13.6903 12.3906 13.7074 12.3558 13.7343C12.2662 13.8329 12.1468 13.8836 12.0473 13.9753C11.9079 14.1147 11.8182 14.2909 11.7485 14.4811C11.6888 14.6843 11.6589 14.8954 11.6291 15.1045C11.5892 15.4082 11.5395 15.7119 11.5096 16.0176C11.4797 16.2865 11.4697 16.5574 11.4598 16.8272C11.4399 17.0094 11.43 17.1917 11.42 17.3749C11.4101 17.5054 11.4101 17.6378 11.4001 17.7692C11.4001 18.1576 11.4199 18.544 11.4498 18.9303C11.4697 19.0897 11.5096 19.247 11.5395 19.4053C11.5495 19.4591 11.5793 19.4959 11.6291 19.5198C11.6689 19.5408 11.7187 19.5597 11.7585 19.5935C11.8481 19.6792 11.9576 19.7021 12.087 19.6981C12.3259 19.6921 12.5649 19.6901 12.8038 19.6851L14.566 19.6423L18.1601 19.5547C18.3393 19.5497 18.5086 19.5408 18.6082 19.5378V19.5378ZM47.072 12.9695L45.738 12.9924C44.1782 13.0213 42.6184 13.0515 41.0586 13.083L39.7644 13.1159C39.7346 13.1159 39.7146 13.1209 39.6847 13.1259C39.6748 13.1259 39.6649 13.1308 39.6649 13.1358C39.6649 13.1418 39.6649 13.1527 39.6749 13.1567C39.6948 13.1796 39.7246 13.1995 39.7545 13.2224C39.7843 13.2463 39.8241 13.2682 39.8341 13.2991C39.854 13.3917 39.9337 13.4405 39.9934 13.4963C40.4514 13.8707 40.8994 14.2431 41.3474 14.6215C41.5067 14.758 41.6659 14.9033 41.8153 15.0457C42.1538 15.3445 42.5023 15.6183 42.8607 15.8902C43.249 16.1879 43.6373 16.4867 44.0256 16.7884C44.1948 16.9238 44.3641 17.0672 44.5234 17.2106C44.8121 17.4576 45.1008 17.7115 45.3895 17.9535C45.6484 18.1676 45.9171 18.3747 46.1859 18.5778C46.4547 18.777 46.7435 18.8726 47.082 18.8606C47.9979 18.8278 48.9139 18.8079 49.8298 18.7849C50.2181 18.775 50.6064 18.772 50.9847 18.764L52.9161 18.7182C53.6827 18.6983 54.4394 18.6764 55.206 18.6575C55.4151 18.6515 55.6242 18.6505 55.8333 18.6475C55.893 18.6475 55.9427 18.6475 55.9925 18.6435C56.1318 18.6336 56.2414 18.5629 56.2912 18.4265C56.3211 18.3348 56.3708 18.2562 56.4206 18.1755C56.57 17.9415 56.6496 17.6836 56.6895 17.4147C56.7691 17.0005 56.7592 16.5852 56.6994 16.17C56.6198 15.4854 56.4103 14.8223 56.0822 14.2162C55.9513 13.9702 55.7943 13.7388 55.6141 13.5262C55.4872 13.3744 55.3437 13.2375 55.1861 13.1179C54.9173 12.9137 54.6186 12.8082 54.2701 12.8162C53.3741 12.8361 52.4881 12.851 51.592 12.8689L49.6208 12.9088L47.2513 12.9566H47.072V12.9695ZM45.0709 17.4247L45.0808 17.4307L45.0709 17.4207L45.0609 17.4167C45.0609 17.4197 45.0609 17.4217 45.0709 17.4247V17.4247ZM45.2402 17.5551C45.2601 17.5701 45.27 17.585 45.2899 17.5999L45.2998 17.6069L45.2899 17.596C45.2799 17.581 45.2601 17.5661 45.2501 17.5522L45.2302 17.5422L45.2402 17.5551V17.5551ZM45.0112 11.4021L38.6294 11.422C38.2412 11.424 37.8528 11.432 37.4646 11.439C37.4247 11.439 37.3949 11.4449 37.3551 11.4529C37.3451 11.4539 37.3451 11.4778 37.3451 11.4868L37.375 11.5405C37.4248 11.5903 37.4746 11.6351 37.5144 11.6899C37.6139 11.8532 37.7733 11.9608 37.9326 12.0623C38.3009 12.2973 38.6793 12.5324 39.0377 12.7723C39.1472 12.8401 39.2467 12.8659 39.3761 12.864C40.1726 12.852 40.9691 12.844 41.7656 12.8341L45.1604 12.7903L48.655 12.7455C49.7501 12.7315 50.8453 12.7176 51.9405 12.7016C52.4781 12.6947 53.0257 12.6847 53.5633 12.6738C53.6429 12.6728 53.7226 12.6668 53.8022 12.6578C53.852 12.6528 53.8818 12.624 53.8918 12.5752C53.9138 12.5012 53.9181 12.423 53.9043 12.3471C53.8905 12.2711 53.8589 12.1995 53.8122 12.138C53.7126 11.9847 53.5932 11.8492 53.4438 11.7337C53.2 11.4999 52.8756 11.3687 52.5378 11.3673C51.1838 11.3713 49.8298 11.3723 48.4758 11.3792C47.321 11.3852 46.1661 11.3962 45.0112 11.4051V11.4021V11.4021ZM17.1447 13.1607C17.9312 13.1458 18.6181 13.1308 19.305 13.1209C19.8924 13.1129 20.4898 13.1109 21.0772 13.1059C21.1369 13.1059 21.1967 13.1059 21.2565 13.1029C21.4158 13.098 21.4356 13.0631 21.346 12.9237C21.2757 12.8215 21.1993 12.7238 21.1171 12.6309C20.8234 12.3234 20.5072 12.0381 20.1712 11.7775C20.0901 11.7133 20.0104 11.6472 19.9322 11.5794C19.9078 11.5543 19.8782 11.5348 19.8456 11.5221C19.813 11.5094 19.7781 11.5038 19.7431 11.5057C19.315 11.5107 18.8869 11.5127 18.4688 11.5176C18.3393 11.5176 18.2199 11.5246 18.0904 11.5256C17.4632 11.5276 16.836 11.5276 16.2088 11.5306C15.243 11.5336 14.2872 11.5386 13.3315 11.5425C13.0925 11.5445 13.0926 11.5485 12.9731 11.7556C12.8636 11.9448 12.8138 12.146 12.8138 12.3641C12.8237 12.4736 12.8237 12.5831 12.8337 12.6927C12.8436 12.858 12.9233 12.9994 13.003 13.1378C13.0329 13.1796 13.0727 13.1975 13.1125 13.1995C13.1822 13.1995 13.2518 13.2015 13.3116 13.1995C14.2872 13.1876 15.263 13.1726 16.2287 13.1607C16.5672 13.1567 16.9057 13.1607 17.1447 13.1607V13.1607ZM51.592 30.6727C51.602 30.7594 51.602 30.8251 51.6219 30.8888C51.6618 31.078 51.7912 31.1945 51.9803 31.2135C52.1055 31.2259 52.2318 31.2081 52.3487 31.1617C52.5379 31.09 52.7071 30.9894 52.8664 30.8739C53.185 30.6429 53.4836 30.377 53.7524 30.0862C54.2402 29.5535 54.6783 28.9749 55.0068 28.3207C55.1263 28.0777 55.2259 27.8278 55.2657 27.5569C55.2891 27.4413 55.2822 27.3216 55.2458 27.2094C55.186 27.0132 55.0567 26.9047 54.8476 26.9027C54.7669 26.9006 54.6864 26.9107 54.6087 26.9325C54.4295 26.9863 54.2702 27.058 54.1109 27.1646C53.7425 27.4215 53.414 27.7222 53.1153 28.0508C52.6374 28.5617 52.2192 29.1163 51.9006 29.7377C51.801 29.9339 51.7114 30.134 51.6517 30.3471C51.6218 30.4606 51.612 30.5761 51.592 30.6727V30.6727Z" fill="black"/>
<path d="M49.3219 33.1861C49.314 33.3768 49.3588 33.5659 49.4513 33.7328C49.5111 33.8334 49.6107 33.8862 49.7301 33.8832C49.787 33.8815 49.8436 33.8748 49.8993 33.8633C50.5564 33.7348 51.1538 33.4719 51.7213 33.1234C52.4081 32.6894 53.0342 32.166 53.5831 31.567C54.1017 31.0006 54.5496 30.3733 54.9171 29.6989C55.0565 29.434 55.1859 29.1621 55.2855 28.8813C55.2954 28.8554 55.3054 28.8206 55.2954 28.7977C55.2736 28.7458 55.247 28.6961 55.2158 28.6493C55.2158 28.6463 55.1859 28.6533 55.176 28.6622C55.1461 28.717 55.1063 28.7738 55.0764 28.8315C54.728 29.4638 54.3198 30.0464 53.8021 30.5513C53.4436 30.8998 53.0454 31.1935 52.5875 31.4037C52.2888 31.5381 51.9801 31.6277 51.6615 31.6556C51.4823 31.6705 51.2932 31.6885 51.114 31.6924C51.0045 31.6954 50.8949 31.6795 50.7854 31.6616C50.6425 31.6365 50.4956 31.6464 50.3574 31.6904C50.1383 31.7611 49.9491 31.8806 49.7898 32.0559C49.5807 32.3029 49.4315 32.5867 49.3518 32.9043C49.3319 32.9949 49.3319 33.0915 49.3219 33.1861V33.1861ZM28.7033 34.9019C28.5839 34.8949 28.5142 34.8889 28.4445 34.8859C28.3964 34.8812 28.348 34.8878 28.303 34.9052C28.258 34.9227 28.2178 34.9506 28.1856 34.9865C28.1259 35.0542 28.0562 35.0742 27.9766 35.0851C27.8571 35.102 27.7275 35.1339 27.6081 35.1598C27.494 35.1815 27.3877 35.2326 27.2995 35.3082C27.2489 35.3514 27.1864 35.3784 27.1202 35.3858C27.0107 35.4097 26.8913 35.4386 26.7818 35.4755C26.6026 35.5342 26.5528 35.6816 26.6524 35.8399C26.722 35.9544 26.8217 36.0241 26.961 36.0202C27.0407 36.0182 27.1203 36.0321 27.19 36.0729C27.2597 36.1148 27.3393 36.1287 27.419 36.0998C27.4588 36.0859 27.5086 36.0859 27.5484 36.0859C27.8272 36.0879 28.1059 36.0759 28.3847 36.0441C28.534 36.0261 28.6834 36.045 28.8427 36.052C28.9423 36.057 29.0418 36.0709 29.1413 36.0779C29.3604 36.0928 29.5694 36.0341 29.7586 35.9485C29.8168 35.9249 29.8697 35.89 29.9141 35.8457C29.9586 35.8014 29.9937 35.7486 30.0174 35.6905C30.0871 35.5223 30.0274 35.3669 29.8681 35.2833C29.8076 35.2558 29.7442 35.2354 29.679 35.2225C29.579 35.1975 29.4845 35.1543 29.4002 35.0951C29.2301 34.9549 29.0126 34.8857 28.7929 34.9019C28.7431 34.9049 28.7033 34.9019 28.7033 34.9019V34.9019ZM15.462 37.8484C15.5914 37.8235 15.7308 37.8156 15.8602 37.7698C16.0693 37.6971 16.2684 37.6025 16.4575 37.5089C16.5571 37.4651 16.6268 37.3943 16.6666 37.2958C16.7164 37.1862 16.6965 37.0847 16.5969 37.0319C16.2783 36.8745 15.9598 36.8128 15.6213 36.9413C15.54 36.9738 15.468 37.0262 15.4121 37.0936C15.3325 37.1982 15.2529 37.2978 15.1434 37.3715C15.0737 37.4123 15.0439 37.48 15.024 37.5527C15.004 37.6642 15.0439 37.7648 15.1534 37.7977C15.2529 37.8265 15.3524 37.8315 15.462 37.8484V37.8484ZM33.6813 37.5318C33.8406 37.5268 33.9799 37.4621 34.0993 37.3934C34.1889 37.3495 34.2188 37.2629 34.2088 37.1693C34.2088 37.0687 34.1392 37.014 34.0496 36.9821C33.9878 36.9578 33.9246 36.9372 33.8604 36.9204C33.7721 36.8978 33.6789 36.9057 33.5957 36.943C33.5125 36.9802 33.4444 37.0446 33.4025 37.1255C33.3228 37.2808 33.3826 37.4352 33.5419 37.5009C33.5916 37.5188 33.6414 37.5228 33.6813 37.5318V37.5318ZM25.7762 37.3555C25.8658 37.3386 25.9754 37.3276 26.065 37.2988C26.1845 37.2649 26.2441 37.1793 26.2441 37.0737C26.2444 37.0143 26.2251 36.9565 26.1891 36.9093C26.1531 36.8621 26.1024 36.8282 26.0451 36.8128C25.9281 36.7802 25.8048 36.7778 25.6867 36.8058C25.5373 36.8387 25.4477 36.9433 25.378 37.0687C25.368 37.1046 25.368 37.1544 25.368 37.1962C25.368 37.242 25.3979 37.2818 25.4477 37.2918C25.5473 37.3177 25.6568 37.3346 25.7762 37.3555V37.3555ZM28.992 37.0876C29.1015 37.0717 29.2309 37.0558 29.3504 37.0359C29.44 37.0219 29.4898 36.9602 29.5097 36.8765C29.5296 36.7949 29.5297 36.7142 29.46 36.6535C29.3898 36.5896 29.3039 36.5456 29.2111 36.526C29.1016 36.5041 29.0119 36.5419 28.982 36.6465C28.967 36.7331 28.9252 36.8129 28.8625 36.8745C28.8426 36.8945 28.8427 36.9263 28.8328 36.9542C28.8228 37.0269 28.8626 37.0837 28.9423 37.0876H28.992V37.0876ZM34.8261 37.0359C34.836 37.0657 34.8361 37.1175 34.856 37.1633C34.8958 37.248 35.0153 37.2629 35.085 37.1952C35.1049 37.1743 35.1248 37.1494 35.1248 37.1235C35.1597 37.0188 35.1597 36.9056 35.1248 36.8009C35.1149 36.7879 35.1049 36.775 35.1049 36.763C35.0451 36.6794 34.9357 36.6774 34.8859 36.762C34.8677 36.7934 34.8542 36.8273 34.846 36.8626C34.8361 36.9124 34.836 36.9642 34.8261 37.0359ZM36.3793 36.2512C36.3693 36.1168 36.2897 36.051 36.1603 36.0859C36.1185 36.0995 36.0784 36.1179 36.0408 36.1406C36.0212 36.1561 36.0056 36.176 35.9952 36.1987C35.9848 36.2213 35.9799 36.2462 35.981 36.2711C35.981 36.3249 36.0208 36.3707 36.0706 36.3786C36.1303 36.3876 36.1801 36.3926 36.2399 36.3986C36.3195 36.4055 36.3693 36.3677 36.3693 36.293C36.3771 36.2805 36.3806 36.2658 36.3793 36.2512V36.2512ZM0.289199 43.0126C0.338978 43.0146 0.378758 42.9798 0.368802 42.9349C0.368802 42.8891 0.329023 42.8533 0.289199 42.8593C0.249376 42.8652 0.219561 42.8891 0.219561 42.928C0.209605 42.9738 0.23942 43.0106 0.289199 43.0126Z" fill="black"/>
</svg>
